<?xml version="1.0"?>
<svg xmlns="http://www.w3.org/2000/svg" version="1.2" baseProfile="tiny" width="800" height="1412" viewBox="0 0 800 1412" stroke-linecap="round" stroke-linejoin="round">
<g id="district">

<style>
.district-path {
    fill: rgba(0,200,83,0.2);
    stroke: #00c853;
    stroke-width: 1.2;
    cursor: pointer;
}

.district-path:hover {
    fill: #00c853;
    stroke: #009624;
    stroke-width: 2;
}

.map-tooltip {
  position: fixed;
  background: #FFFFFF;
  border: 1px solid rgba(0,0,0,0.08);
  border-radius: 8px;
  padding: 8px 12px;
  font-size: 0.8rem;
  font-weight: 600;
  color: #1A1A2E;
  box-shadow: 0 8px 24px rgba(0,0,0,0.10);
  pointer-events: none;
  z-index: 1500;
  display: none;
  white-space: nowrap;
</style>


<path 
    class="district-path"
    data-id="kasaragod"
    data-name="Kasaragod"
    role="button"
    tabindex="0"
    d="M 473.7 927.26 475.64 929.37 476.34 933.55 472.15 938.41 471.47 941.05 473.34 945.88 473.99 948.51 475.06 950.46 476.36 954.08 476.56 956.55 476.37 961.51 475.91 964.3 475.09 967.17 474.95 971.21 479 973.09 483.08 974.62 481.33 980.43 481.14 982.26 481.41 986.67 481.84 991.44 481.42 995.34 481.07 1002.94 480.69 1005.11 480.36 1012.55 480.12 1014.87 479.46 1017.96 483.5 1016.14 483.75 1014.31 485.42 1013.24 486.72 1013.55 486.82 1014.12 486.93 1014.82 488.56 1014.99 490.66 1017.43 494.55 1015.99 502.66 1013.93 502.41 1016.5 502.71 1019.65 506.87 1021.62 507.18 1024.14 507.05 1028.98 507.6 1030.51 511.13 1030.72 513.02 1031.61 515.12 1031.7 515.79 1032.72 515.87 1033.88 515.5 1036.54 515.57 1039.31 514.96 1040.35 515.22 1042.29 514.74 1043.62 513.88 1044.68 513.07 1046.18 512.3 1051.21 515.26 1052.27 516.94 1053.28 515.31 1055.57 516.01 1055.97 516.15 1056.92 516.68 1058.15 515.97 1059.04 516.44 1063.02 518.25 1063.57 517.59 1064.47 517.22 1065.69 517.41 1066.93 517.98 1067.8 517.22 1069.5 517.21 1071.04 516.3 1071.2 516.92 1072.8 518.85 1074.08 520.76 1074.54 520.67 1075.35 517.82 1075.44 517.26 1078.43 511.99 1080.3 510.14 1080.36 506.47 1084.41 505.97 1086.02 507.16 1086.9 509.86 1086.83 512.17 1087.82 513.81 1088.44 515.54 1088.49 518.39 1087.47 523.01 1087.63 524.15 1088.11 524.92 1089.07 529 1088.2 530.47 1087.55 530.51 1084.15 531.7 1083.35 532.11 1081.79 530.21 1081.38 529.43 1080.29 530.91 1079.59 531.9 1080.46 533.36 1079.43 536.18 1078.23 537.82 1079.21 538.68 1080.1 540.51 1079.68 543.64 1079.55 545.07 1080.04 546.27 1080.92 552.33 1082.46 553.65 1082.47 554.72 1081.76 557.78 1081.75 558.21 1082.49 557.87 1083.87 558.73 1085.33 558.72 1085.34 556.83 1086.9 559.53 1091.06 561.13 1092.56 561.84 1093.58 561.82 1096.56 562.09 1098.6 563.29 1099.42 564.74 1099.25 566.06 1099.69 567.17 1098.91 568.48 1098.58 569.99 1096.9 571.36 1098.28 571.83 1098.16 572.06 1096.88 574.02 1096.72 574.08 1099.24 573.75 1100.53 570.55 1101.4 569.08 1104.73 564.78 1105.27 562.44 1108.17 561.64 1110.17 563.13 1113.89 561.69 1115.46 560.85 1115.92 559.69 1116.04 557.46 1116.84 558.46 1120.7 557.58 1121.72 558.41 1121.72 558.57 1122.7 557.95 1123.55 558.67 1125.66 559.48 1125.87 559.35 1124.09 560.33 1123.97 561.63 1126.3 566.04 1126.88 568.95 1131.27 571.02 1133.46 571.67 1134.75 571.19 1135.91 569.59 1135.39 568.46 1135.55 567.91 1136.39 567.6 1137.66 567.97 1140.31 567.6 1141.45 565.76 1142.12 562.2 1142.18 558 1142.47 557.12 1143.36 555.49 1146.51 552.06 1146.93 550.96 1147.5 550.42 1148.41 549.08 1149.07 545.64 1148.71 543.76 1148.61 541.75 1148.83 541.5 1151.27 540.37 1151.98 540 1153.27 537.34 1152.82 535.15 1154.98 533.71 1154.98 531.62 1155.4 529.37 1154.48 528.12 1150.37 526.91 1149.19 526.85 1146.37 524.82 1146.75 517.91 1146.3 517.05 1147.4 516.02 1147.74 515.57 1148.94 515.98 1150 515.99 1150.96 514.24 1150.31 512.87 1150.32 510.22 1150.82 508.87 1150.79 508.61 1150.79 507.99 1151.14 507.45 1151.45 506.95 1152.4 510.77 1161.38 509.16 1162.33 509.12 1162.2 508.68 1161.56 508.41 1160.68 508.13 1160.31 507.99 1160.23 508 1159.88 507.86 1159.81 507.67 1158.81 506.75 1158.14 506.76 1157.99 506.53 1157.8 505.76 1156.42 505.19 1155.9 504.6 1154.4 503.7 1153.38 503.57 1152.81 503.03 1152.07 502.68 1151.58 502.47 1151.43 502.15 1149.77 501.69 1148.39 500.24 1144.06 498.57 1141.2 497.62 1139.23 497 1138.51 496.87 1138.2 494.91 1133.42 493.87 1130.91 493.58 1130.57 493.3 1130.27 492.79 1128.82 492.65 1128.74 491.53 1125.73 491.14 1124.3 490.86 1124.02 490.59 1123.73 490.2 1122.36 490.06 1122.29 489.91 1122.22 489.79 1121.72 489.26 1120.68 488.99 1120.3 488.65 1119.75 487.04 1115.75 486.64 1115.32 486.29 1114.38 485.42 1112.3 482.37 1103.29 482.23 1103.21 480.87 1099.91 480.18 1099.18 480.11 1097.76 479.97 1097.69 479.47 1096.32 479.3 1096.23 479.09 1095.65 478.13 1093.17 476.94 1090.08 476.66 1089.79 476.04 1089 475.92 1088.5 475.64 1088.27 475.49 1088.2 474.55 1085.98 473.66 1084.89 473.55 1084.4 473.41 1084.32 473.42 1084.1 473.21 1083.46 472.92 1083.31 472.08 1081.32 471.81 1081.03 471.11 1079.36 470.56 1078.84 469.97 1076.98 469.83 1076.91 469.69 1076.84 469.05 1075.33 468.7 1074.42 468.55 1074.34 468.18 1073.46 466.43 1068.66 466.29 1068.59 466.14 1068.51 464.16 1062.75 464.03 1062.23 463.84 1061.69 462.42 1056.64 462.23 1055.85 462.31 1055.49 462.11 1054.99 462.07 1054 462.01 1053.76 461.63 1051.9 460.97 1049.31 460.8 1049.13 460 1046.36 459.82 1045.3 459.33 1042.6 459.2 1042.07 458.96 1040.7 457.06 1033.17 456.96 1032.8 456.66 1031.09 455.83 1024.16 455.34 1019.99 454.56 1016.2 453.57 1012.29 453.41 1010.29 453.21 1009.51 453.11 1009.14 453 1008.88 452.7 1004.19 452.63 1003.03 452.57 1002.05 449.97 992.97 448.54 984.17 447.61 978.36 446.48 964.23 446.3 961.88 446.2 957.45 446.1 955.65 445.93 954.64 445.98 953.23 444.85 944.29 444.56 942 445.67 941.68 446.1 940.77 445.96 939.8 445.4 938.91 445.54 937.37 447.98 935.79 447.29 934.32 447.02 933.12 446.01 932.95 445.47 932.26 445.06 929.79 446.04 926.6 446.65 923.24 447.86 922.87 449.37 922.85 450.23 921.99 449.02 915.38 448.64 910.78 449.74 910.18 450.25 910.2 451.51 910.26 453.42 912.11 461.22 914.49 463.5 914.14 467.12 912.93 467.99 912.83 470.2 915.6 472.72 920 473.01 920.96 472.72 922.57 472.85 925.54 473.7 927.26 Z"/>
<path 
    class="district-path"
    data-id="kannur"
    data-name="Kannur"
    role="button"
    tabindex="0"
    d="M 572.57 792.18 571.95 793.91 570.69 795.45 569.88 797.04 570.05 800.62 569.38 804.38 568.37 807.77 567.73 808.87 563.77 813.61 562.88 814.54 560.97 815.9 558.48 823.79 558.22 825.28 560.01 827.06 562.89 831.76 563.92 832.18 565.3 831.45 566.35 831.31 567.58 831.6 568.58 832.28 572.76 836.45 575.72 838.99 578.47 840.73 580.91 842.66 584.47 846.23 589.35 848.99 591.64 852.07 592.89 853.08 598 856.41 600.78 856.55 601.87 856.98 603.65 859.56 603.31 860.92 605.53 862.72 607.03 863.32 608.82 863.53 610.91 864.79 612.67 865.27 616.22 867.76 619.91 868.34 618.38 869.91 617.67 871.09 616.74 871.5 612.49 869.78 608.87 867.34 605.43 866.08 604.9 865.54 602.38 864.83 599.98 867.6 596.79 872.22 598.52 875.74 598.34 878.78 596.52 879.18 596.42 880.3 596.63 881.45 591.19 878.96 589.92 879.18 586.08 880.46 584.35 881.63 581.79 879.72 581.22 880.42 579.33 879.79 581.35 885.67 581.73 888.91 581.26 889.84 579.16 891.12 579.4 892.09 577.54 895.74 575.67 898.15 574.58 897.71 573.16 899.19 573.15 900.2 576.16 902.33 576.01 903.37 575.58 904.03 574.47 904.81 573.62 904.7 571.49 903.24 570.38 901.27 569.69 901.09 567.39 901.07 565.83 901.9 564.61 901.91 563.24 901.27 561.77 901.52 560.38 900.9 558.06 901.71 556.65 901.48 555.74 902.17 555.06 902.96 554.62 904.2 554.89 906.29 554.5 907.54 554.85 908.64 555.13 911.77 556.84 913.84 556.86 914.99 556.31 916.2 555.47 916.97 555.34 919.63 555 920.99 554.35 920.67 552.32 920.38 548.82 923.1 549.33 923.99 550.5 925.16 549.04 925.93 548.07 925.29 547.72 926.04 546.08 924.62 544.61 924.45 543.51 924.06 540.62 925.48 539.47 925.42 539.48 926.76 539.14 928.34 539.58 930.02 538.97 931.29 537.35 932.3 535.62 931.32 534.6 931.33 532.46 933.56 532.6 934.66 531.83 937.47 529.96 938.2 528.62 938.47 528.01 936.87 527.29 936.55 527.36 934.49 526.84 934.29 526.32 931.49 525.67 931.06 524.11 930.81 520.74 930.89 518.05 922.83 516.57 922.39 513.34 922.33 509.63 923.81 507.95 923.46 505.81 924.61 501.56 923.37 499.3 925.69 497.89 926.72 496.39 928.45 492.3 930.49 489.42 931.28 487.72 931.48 486.47 931.13 484.04 929.65 480.9 929.52 478.07 925.02 475.97 925.93 474.96 926.37 473.7 927.26 472.85 925.54 472.72 922.57 473.01 920.96 472.72 920 470.2 915.6 467.99 912.83 467.12 912.93 463.5 914.14 461.22 914.49 453.42 912.11 451.51 910.26 450.25 910.2 449.74 910.18 448.64 910.78 449.02 915.38 450.23 921.99 449.37 922.85 447.86 922.87 446.65 923.24 446.04 926.6 445.06 929.79 445.47 932.26 446.01 932.95 447.02 933.12 447.29 934.32 447.98 935.79 445.54 937.37 445.4 938.91 445.96 939.8 446.1 940.77 445.67 941.68 444.56 942 443.83 936.14 441.87 926.95 441.4 924.31 439.36 913.03 439.06 911.53 437.75 906.42 437.21 904.73 437.06 904.3 436.67 903.25 436.52 903.17 435.4 900.11 435.25 900.03 434.75 898.88 434.76 898.67 434.61 898.59 434.55 898.24 434.41 898.16 434.28 898.09 432.64 892.58 432.35 890.24 432.59 887.06 432.9 885.68 432.99 885.43 429.54 880.25 429.05 879.85 428.81 879.13 428.16 878.06 427.44 877.32 426.78 876.69 426.26 875.82 426.13 875.32 425.99 875.24 425.86 875.16 425.2 872.32 424.14 868.81 423.64 867.59 423.5 867.51 423.28 867.37 422.82 866.3 422.75 866.01 422.62 865.93 422.41 865.78 421.54 863.73 420.19 860.48 418.88 855.34 418.59 855.04 418.08 852.49 417.71 849.92 417.32 848.44 416.94 846.71 416.43 844.71 416.44 844.28 414.66 838.98 414.02 835.09 413.93 834.71 413.59 833.85 413.02 831 411.86 827.48 411.71 827.29 411.63 827.03 411.47 826.91 411.1 825.84 410.89 825.69 410.75 825.62 410.49 824.69 410.21 824.39 410 824.25 409.71 823 409.52 821.04 409.59 820.84 410.09 819.71 409.72 818.27 412.79 816.83 413.53 816.48 416.84 815.82 417.13 815.79 423.66 815.01 423.48 814.46 423.41 814.26 423.96 812.89 424.72 812.79 425.49 812.16 426.2 811.14 428.35 812.13 430.93 812.5 432.22 812.01 435.08 813.32 436.19 812.94 438.65 813.25 439.74 813.72 439.58 814.47 438.74 814.83 439.26 816.88 441.13 817.21 443.04 819.76 443.38 821.36 448.19 820.35 450.08 820.23 451.75 818.4 452.84 818.03 455.34 819.33 454.95 817.31 454.94 815 454.44 812.66 454.92 811.55 460.29 810.59 461.8 809.61 462.53 808.57 463.1 804.91 463.58 803.73 464.52 803.05 473.48 800.75 474.39 800.2 475.46 799.07 475.56 797.13 476.1 796.36 477.87 796.44 479.19 795.78 479.02 794.36 479.4 793.5 481.13 792.35 482.08 790.45 482.94 789.34 483.73 788.97 486.11 788.61 486.37 787.41 486.25 785.9 487.32 785.65 487.34 784.59 487.04 783.59 487.57 783.28 492.11 785 493.42 784.34 494.95 784.1 497.87 783.17 501.38 783.11 505.26 784.52 511.72 784.51 512.5 785.26 513.47 785.79 514.67 786.08 519.04 786.18 521.66 786.49 526.36 785.61 527.9 786.05 530.06 787.31 531.2 787.42 533.23 786.84 536.3 787.19 534.46 784.06 535.44 783 538.14 781.36 540.22 782.35 541.73 782.43 542.03 784.32 542.5 784.98 543.42 785.85 545.99 787.58 550.5 788.26 551.79 789.83 552.75 790.12 555.03 790.13 556.96 789.87 558.36 789.31 559.24 787.84 563.01 788 564.62 788.58 566.57 790.74 570.44 791.39 572.57 792.18 Z"/>
<path 
    class="district-path"
    data-id="wayanad"
    data-name="Wayanad "
    role="button"
    tabindex="0"
    d="M 758.84 1103.89 755.98 1102.7 755.29 1102.05 753.87 1101.4 751.85 1101.16 750.58 1099.45 747.3 1098.45 746.92 1100.57 745.59 1099.63 744.89 1100.4 744.21 1097.3 741.97 1095.85 741.04 1096.18 740.85 1090.66 744.08 1086.92 743.84 1085.99 742.93 1085.1 744.24 1083.82 745.01 1082.58 744.77 1081.06 743.97 1079.57 744.66 1077.98 745.93 1076.64 746.23 1073.21 747.42 1071.17 747.98 1069.51 747.59 1068.26 741.89 1060.29 742.65 1058.6 742.11 1057.5 740.73 1057.87 740.52 1056.74 739.69 1055.95 740.14 1053.39 737.02 1051.58 736.18 1050.25 735.39 1050.75 734.85 1050.66 735.65 1049.25 734.1 1047.69 733.1 1048.22 731.77 1047.78 730.15 1048.22 729.28 1047.94 728.75 1046.42 727.85 1046.73 727.05 1045.71 727.74 1044.55 727.85 1043.85 727.23 1043.54 726.66 1041.56 724.48 1042.98 722.89 1044.61 722.95 1043.22 722.49 1043.5 722.16 1041.82 720.33 1042.08 718.59 1041.98 714.78 1044.67 714.19 1041.69 714.37 1039.82 715.01 1038.34 714.95 1036.78 714.27 1035.66 711.06 1034.92 708.65 1038.34 707.55 1039.23 704.89 1039.01 702.59 1039.11 698.96 1043.18 697.42 1044.48 696 1045.11 694.96 1045.33 692.92 1046.42 691.82 1046.54 689.69 1045.16 688.38 1044.96 687 1044.88 685.76 1045.98 685.09 1047.65 687.82 1053.21 689.79 1055.83 691.12 1058.47 690.08 1058.68 686.9 1058.24 683.54 1059.48 681.54 1059.75 680.93 1060.41 680 1060.49 679.25 1061.32 678.05 1061.17 676.77 1061.54 674.31 1060.87 674.44 1057.44 671.63 1057.77 669.86 1056.42 667.63 1056.63 663.06 1055.87 658.47 1054.43 651.22 1054.32 652.24 1053.76 652.87 1052.92 651.07 1051.01 651.73 1049.59 654.07 1049.22 656.09 1047.08 657.73 1044.89 659.44 1044.05 665.12 1042.7 665.76 1040.73 665.74 1039.47 664.88 1038.25 665.33 1037.06 662.38 1032.21 659.63 1030.34 657.49 1032.25 655.96 1035.31 653.74 1035.18 651.09 1032.55 650.26 1031.09 648.84 1031.52 646.6 1030 640.7 1025 639.53 1021.1 635.45 1020.78 634.78 1014.07 634.99 1011.22 634.2 1008.9 633.84 1007.83 634.51 1007.02 637.15 1005.85 636.64 1003.47 636.65 1000.79 635.86 998.74 635.95 997.02 635.36 995.76 635.69 995.13 636.95 994.82 637.24 994.36 636.92 992.98 637.56 992.03 638.68 991 640.26 990.73 642.93 993.16 648.7 996.53 650.18 994.86 646.26 990.38 645.64 989.1 645.62 987.56 646.06 986.88 647.78 985.92 647.81 985.11 644.9 982.39 642.9 979.38 640.38 977.49 640.03 974.75 637.26 968.36 636.19 966.5 634.81 964.52 631.15 962.94 629.27 961.57 627.94 959.89 626.3 960.76 624.38 959.21 618.58 951.59 616.67 950.17 616.52 948.82 611.67 943.62 608.68 941.27 602.1 936.97 600.12 936.11 597.49 935.71 595.85 934.61 593.99 933.84 593.21 934.34 590.63 937.3 589.27 937.09 587.07 935.96 585.84 934.94 584.36 934.75 582.77 934.03 578.84 931.32 577.32 930.98 576.26 930.34 575.58 928.47 574.41 928.03 572.29 927.94 571.57 927.44 570.83 926.38 569.07 926.38 568.39 925.39 567.38 924.84 566.33 925.06 565.36 925.86 564.53 926.23 560.14 925.41 555.77 923.91 554.35 922.95 554.56 921.84 555 920.99 555.34 919.63 555.47 916.97 556.31 916.2 556.86 914.99 556.84 913.84 555.13 911.77 554.85 908.64 554.5 907.54 554.89 906.29 554.62 904.2 555.06 902.96 555.74 902.17 556.65 901.48 558.06 901.71 560.38 900.9 561.77 901.52 563.24 901.27 564.61 901.91 565.83 901.9 567.39 901.07 569.69 901.09 570.38 901.27 571.49 903.24 573.62 904.7 574.47 904.81 575.58 904.03 576.01 903.37 576.16 902.33 573.15 900.2 573.16 899.19 574.58 897.71 575.67 898.15 577.54 895.74 579.4 892.09 579.16 891.12 581.26 889.84 581.73 888.91 581.35 885.67 579.33 879.79 581.22 880.42 581.79 879.72 584.35 881.63 586.08 880.46 589.92 879.18 591.19 878.96 596.63 881.45 596.42 880.3 596.52 879.18 598.34 878.78 598.52 875.74 596.79 872.22 599.98 867.6 602.38 864.83 604.9 865.54 605.43 866.08 608.87 867.34 612.49 869.78 616.74 871.5 617.67 871.09 618.38 869.91 619.91 868.34 616.22 867.76 612.67 865.27 610.91 864.79 608.82 863.53 607.03 863.32 605.53 862.72 603.31 860.92 603.65 859.56 601.87 856.98 600.78 856.55 598 856.41 592.89 853.08 591.64 852.07 589.35 848.99 584.47 846.23 580.91 842.66 578.47 840.73 575.72 838.99 572.76 836.45 568.58 832.28 567.58 831.6 566.35 831.31 565.3 831.45 563.92 832.18 562.89 831.76 560.01 827.06 558.22 825.28 558.48 823.79 560.97 815.9 562.88 814.54 563.77 813.61 567.73 808.87 568.37 807.77 569.38 804.38 570.05 800.62 569.88 797.04 570.69 795.45 571.95 793.91 572.57 792.18 575.76 792.71 577.8 792 578.75 791.35 585.43 790.69 587.76 789.93 590.06 789.72 591.7 788.81 592.82 789.84 595.19 791.41 596.7 791.11 598.22 791.19 599.89 790.71 600.05 789.04 601.86 789.1 604.37 788.84 605.86 788.11 606.49 788.99 607.32 788.97 609.31 786.43 611.33 786.58 613.59 787.11 616.34 788.23 616.94 789.25 617.83 789.29 618.72 788.81 619.64 786.89 620.16 786.84 621.57 788.13 622.19 787.85 628.04 790.45 628.38 791.29 629.07 791.36 629.71 790.59 632.1 791.64 632.48 792.29 632.47 793.41 633.2 793.52 634.45 794.2 635.27 795.27 637.25 794.84 638.3 796.47 640 797.16 640.55 798.93 640.17 800.42 642.18 800.45 642.97 801.93 644.31 802.89 645.52 803.37 648.96 802.66 650.43 801.3 651.3 801.36 654.9 804 656.99 803.47 659 804.42 661.05 804.73 661.99 805.64 663.75 806.65 664.83 807.87 666.02 806.22 668.17 804.34 669.99 804.33 671.29 803.37 672.01 801.89 672.65 801.38 673.8 801.24 676.07 799.17 678.76 798.79 679.01 797.73 679.81 797.46 683.47 797.1 686.07 795.46 687.3 791.13 684.57 787.95 688.42 787.27 690.68 785.52 689.99 784.59 690.22 783.77 693.02 783.46 695.15 782.27 696.99 780.52 699.58 779.31 699.63 779.29 701.55 778.64 702.88 777.86 705.54 777.79 707.93 776.93 709.79 775.87 711.38 774.32 713.7 772.83 716 771.74 720.44 768.49 725.05 764.65 726.9 764.74 728.25 765.35 730.83 765.61 733.22 764.67 734.4 765.53 736.52 765.98 741.22 766.15 743.64 766.48 743.76 770.16 742.46 772.2 741.26 777.28 742.12 779.72 743.29 780.33 746.76 786.21 751.36 792.36 752.62 793.55 751.69 794.23 750.98 795.17 750.84 796.23 751.14 800.31 751.07 802.16 751.39 803.92 752.21 803.47 752.86 802.74 753.79 803.06 754.22 802.37 755.23 802.89 757.57 802.5 758.74 802.74 760.27 803.92 762.05 808.08 761.61 809.09 760.72 809.2 759.99 809.89 759.71 811.05 758.68 811.36 759.2 812.21 758.6 814.39 757.04 816.7 755.4 824.34 755.56 828.76 754.88 830.43 754.93 831.58 755.74 832.06 756.01 832.68 755.63 835.69 754.13 836.56 753.6 838.1 751.34 837.81 749.4 837.25 747.8 836.47 746.44 835.39 744.75 835.91 743.54 836.88 742.76 838.16 741.71 838.79 740.75 838.95 738.76 839.82 737.91 840.57 736.21 839.68 735.18 839.76 733.17 843.08 733.06 844.06 733.72 844.54 733.69 845.93 733.99 847.62 735.4 849.99 736.61 850.89 738.3 851.57 740.98 854.7 742.62 855.2 743.41 857.15 744.62 858.73 746.56 860.62 748.58 861.96 750.23 864.79 751.25 865.58 752.04 866.64 752.31 868.02 750.91 870.55 749.74 872.07 749.8 872.94 751.94 874.59 751.95 875.74 752 875.74 751.15 877.29 751.66 878.77 752.91 878.79 752.3 880.05 752.63 881.5 755.68 883.54 756.28 884.32 755.52 887.56 754.36 888.56 752.68 890.96 749.64 890.8 748.51 891.33 748.3 890.71 747.91 890.88 747.84 892.36 743.91 897.15 743.61 898.74 742.35 902.5 738.45 906.09 739.12 911.27 737.93 912.22 737.53 913.78 736.8 914.97 739.97 918.77 741.25 919.34 742.84 918.87 744.52 920.26 744.55 922.15 741.44 923.54 741.3 925.31 741.83 925.94 739.92 931.07 741 931.56 743.08 931.46 743.24 932.84 745.64 933.62 747.44 936.44 747.19 937.35 747.81 939.19 745.53 939.75 744.22 941.31 740.23 941.89 740.51 946.13 743.01 948.12 741.07 949.58 740.75 952.75 739.09 955.19 739.78 960.14 737.17 961.52 734.05 962.08 734.14 965.01 733.77 967.72 734.62 971.26 732.81 973.77 732.47 975.87 731.65 976.73 730.85 979.35 728.63 980.66 728.81 982.03 727.49 982.11 726.48 983.16 726.56 986.38 724.92 988.8 724.93 989.72 725.44 992.06 723.04 993.91 723.14 995.65 722.2 996.39 723.33 997.8 727.03 998.05 729.33 999.15 730.76 997.8 732.28 997.49 732.9 996.39 736.03 996.93 736.24 999.59 737.57 1000.61 739 1000.65 740.02 1001.72 740.18 1003.1 741.93 1004.86 744.49 1006.74 746.71 1005.75 749.54 1006.54 750.52 1007.11 751.39 1008.03 752 1008.01 753.21 1009.02 754.6 1009.15 755.5 1008.16 756.53 1008.62 760.96 1005.5 760.86 1004.14 762.29 1004.41 764.47 1002.14 770.06 1000.33 771.54 1001.64 773.01 1001.23 773.37 1001.7 772.1 1003 772.49 1004.98 771.78 1005.67 772.07 1007.42 775.32 1008.35 776.51 1009.65 777.67 1006.51 781.54 999.67 784.74 1001.46 784.82 1001.85 784.16 1002.34 783.22 1001.93 782.78 1001.99 782.27 1002.87 781.56 1005.12 782.93 1008.36 782.45 1009.44 781.45 1009.37 780 1011.64 780.49 1012.26 780.69 1013.69 781.29 1014.05 783.36 1014.22 784.07 1014.96 784.62 1016.81 784.63 1021.19 785.94 1021.93 787.91 1024.35 789.57 1024.77 790.98 1026.68 796 1024.15 795.9 1027.26 797.06 1027.94 798.56 1028.01 799 1030.46 796.38 1032.22 795.64 1033.71 795.15 1035.94 795.2 1038.85 796.07 1039.61 794.63 1041.55 793.11 1042.34 793.5 1044.82 791.51 1046.54 790.07 1046.97 788.81 1047.16 787.74 1047.04 786.58 1045.72 785.03 1045.17 783.09 1046.56 782.31 1048.08 779.6 1051.02 779.72 1053.25 778.86 1054.05 778.31 1055.99 776.44 1058.19 775.68 1058.98 775.58 1060.19 777.49 1062.61 777.56 1063.94 776.7 1065.91 777.08 1066.87 776.99 1067.43 775.11 1068.23 775.04 1072.26 776.15 1073.73 775.2 1074.9 775.39 1076.07 771.97 1081.23 772.51 1083.34 771.15 1083.43 768.98 1084.27 765.98 1083.43 764.82 1083.67 763.97 1083.5 764.29 1085.45 763.39 1085.96 764.37 1087.21 764.82 1088.95 764.8 1089.56 764.01 1090.51 763.79 1091.81 761.97 1093.59 760.64 1093.93 759.59 1094.69 758.57 1094.97 758.67 1097.84 760.88 1103.64 758.84 1103.89 Z"/>
<path 
class="district-path"
    data-id="kozhikode"
    data-name="Kozhikode"
    role="button"
    tabindex="0"
    d="M 335.13 268.99 333.52 272.83 333.34 274.67 336.36 278.14 336.99 280.69 337.17 283.12 336.74 284.98 334.71 287.58 329.76 289.66 331.46 291.23 335.13 293.47 334.32 296.28 334.52 298.97 333.96 299.98 333.24 300.1 332.91 298.99 332.17 298.35 331.09 298.89 329.92 298.75 325.94 299.67 324.29 299.21 323.06 299.37 321.68 298.65 320.51 298.97 319.51 298.81 317.95 297.85 315.41 298.17 314.25 297.24 313.04 297.72 311.87 297.75 310.03 297.13 309.17 296.53 308.3 295.52 307.28 295.47 304.91 296.91 303.54 296.96 301.95 296.65 299.58 295.22 296.64 295.38 295.73 296.53 295.29 297.53 294.39 298.11 291.83 298.2 291.39 299.7 291.11 301.37 291.95 302.55 293.25 303.52 293.68 305.08 293.7 306.6 293.24 307.98 291.89 308.77 290.43 309.04 288.88 309.98 287.99 311.08 287.13 313.17 285.68 312.12 283.81 311.72 279.73 311.41 278.53 312.11 278.77 313.95 279.89 314.97 280.45 316.38 280.19 317.29 278.34 317.48 275.56 316.78 274.95 318.42 273.39 318.83 271.87 317.82 271.48 316.7 270.62 315.63 268.29 314.08 266.64 313.72 265.12 313.8 263.87 313.12 262.28 312.9 261.24 313.21 260.31 313.9 258.58 319.88 257.61 320.6 254.78 322.01 253.94 322.74 253.03 325.48 249.94 326.8 242.88 332.63 240.49 332.42 239.42 334.63 234.88 338.34 233.72 338.79 232.43 338.43 231.43 339.17 230.58 339.27 229.3 339.03 228.95 339.48 229.75 340.43 230.05 341.29 229.8 342.4 230.11 343.52 232.8 344.9 233.25 345.4 232.7 347.64 231.22 348.03 229.44 347.63 228.23 347.66 227.36 348.23 225.91 350.29 224.71 351.19 223.48 351.68 222.49 351.84 221.73 350.7 220.46 350.04 220.12 349.1 220.49 347.86 219.94 346.38 217.96 343.32 216.96 342.98 214.2 342.66 214.19 342.65 213.59 341.51 212.94 340.82 211.84 340.72 209.48 342.08 209.04 341.67 208.97 341.46 206.9 339.63 206.91 339.34 205.86 338.26 205.8 337.97 205.59 337.68 205.6 337.54 205.32 337.32 204.83 336.73 204.69 336.46 204.55 336.03 204.14 335.23 203.87 334.87 203 334.06 199.17 331.07 194.78 327.77 194.49 327.55 194.19 326.9 194.19 326.55 194.31 326.41 194.26 325.63 193.49 324.91 193.1 323.73 192.96 323.65 192.5 322.81 192.33 322.69 192.11 322.31 191.76 322.23 190.82 322.56 190.3 322.97 190.22 323.19 189.28 323.52 188.99 323.58 188.13 323.26 187.26 323.11 187.58 322.54 188.04 321.84 188.25 321.65 188.31 320.87 188.3 320.81 188.28 320.52 187.76 319.79 187.37 319.28 187.17 318.86 187.04 318.64 186.33 318.06 186.13 317.65 185.92 317.22 183.81 315.59 183.53 315.15 182.11 314.05 181.37 313.47 181.17 313.18 181.13 313.04 177.9 310.26 177.22 308.9 176.1 307.8 175.42 306.3 175.14 306.08 174.58 305.35 174.31 304.43 173.89 303.99 173.69 303.85 173.55 303.49 173.27 302.92 172.73 302.47 172.49 302.04 172.35 301.81 172.27 301.61 171.67 301.11 169.17 299.41 169.03 299.05 168.77 298.86 168.63 298.76 168.07 298.18 167.94 297.82 167.16 297.17 167.17 297.03 166.25 296.23 165.58 294.65 165.29 294.36 164.17 293.62 163.53 293.65 161.93 293.78 160.73 294.25 160.47 294.46 159.94 295.5 159.25 296.05 159.21 296.2 158.38 296.42 157.49 296.45 156.65 296.03 155.84 295.4 155.85 295.18 155.41 294.32 155.36 291.7 154.87 291.26 154.45 290.83 154.37 290.67 153.98 289.82 153.21 289.16 153.21 288.89 151.38 287.18 151.31 286.98 150.47 286.05 150.19 285.83 150.2 285.55 149.22 284.53 149.23 284.25 147.67 282.93 144.76 281.87 144.41 281.51 144.26 281.43 144.28 280.44 144 279.75 144.21 279.31 144.97 278.89 145.25 278.54 145.17 278.35 144.53 277.89 143.63 275.25 142.51 274.02 141.83 272.44 141.48 272.08 141.19 271.86 141.15 270.58 141.06 270.3 140.8 269.37 140.65 269.29 140.55 268.87 140.56 268.51 140.72 268.23 141.04 268.03 142.24 267.71 144.46 268.26 144.89 268.41 147.08 269.76 148.21 270.47 148.99 271.13 149.05 271.55 150.19 272.32 150.64 272.57 151.03 272.8 152.25 273.12 152.83 272.99 153.3 272.65 153.59 271.89 153.37 270.74 150.75 268.23 149.6 267.17 149.6 267.03 148.12 265.93 147.18 265.57 145.2 264.66 145.05 264.51 144.65 263.58 144.51 263.51 144.36 263.44 144.2 262.86 143.94 260.86 143.77 259.42 143.59 258.19 142.34 257.18 141.35 257.75 141.26 258.47 141.36 259.35 140.91 260.08 139.87 259.6 138.99 258.93 138.46 257.88 137.93 256.66 137.39 255.44 136.5 254.24 135.61 253.21 134.92 252.71 134.1 253.1 134.04 254.47 134.33 256.2 134.6 257.03 134.74 257.1 134.88 257.18 134.94 257.55 135.09 257.62 135.16 257.9 135.49 258.68 135.77 258.83 136.58 260.72 136.55 260.81 137.19 261.67 137.66 262.71 138.13 263.76 138.23 264.64 137.58 264.85 136.55 264.72 135.31 263.88 134.06 262.87 132.85 261.5 132.18 260.57 131.79 260.18 131.29 259.43 131.09 259.21 131.09 259.06 130.18 258.26 130.19 257.98 129.62 257.4 129.02 255.68 128.81 255.54 128.81 255.39 127.69 254.03 127.54 253.82 126.88 252.02 124.78 249.62 124.23 248.62 124.1 248.19 123.54 247.55 123.4 247.47 123.4 247.33 123.26 247.25 123.2 246.97 122.99 246.68 122.77 246.53 122.57 245.67 122.37 245.53 121.89 244.8 120.05 243.27 117.76 242.51 116.93 242.65 115.96 242.82 115.95 242.96 115.46 243.33 114.78 243.86 113.61 245.72 113.51 245.88 112.81 246.36 112.77 246.5 110.28 247.74 110.21 247.93 109.25 249.04 108.81 249.32 108.03 248.8 107.81 248.8 107.68 248.58 107.66 248.01 107.06 244.31 106.23 241.92 106.09 241.85 105.99 241.38 105.42 240.8 104.17 237.51 104.03 237.43 102.25 233.34 102.1 233.26 101.71 232.42 101.14 230.83 99.55 226.19 99.33 224.89 98.53 223.74 97.54 220.7 99.48 218.67 100.38 218.02 101.59 218.43 102.24 219.05 104 218.47 103.98 215.61 103.39 213.15 104.15 212.15 102.89 209.19 102.99 208.27 103.71 206.26 104.93 204.94 103.81 203.29 103.35 198.89 102.39 195.8 101.65 194.8 100.34 193.76 99.03 191.93 98.25 189.94 99.31 189.52 100.5 189.71 103.49 189.5 105.36 188.93 106.55 189.07 107.15 189.6 108.29 189.18 110.12 187.31 112.1 185.91 114.26 183.98 115.46 181.69 116.21 181.1 116.97 180.82 118.08 181.34 119.96 181.69 121.3 181.67 124.11 181.08 126.08 179.39 129.22 178.76 130.88 178.15 131.58 177.3 132.61 176.56 133.91 176.62 134.96 176.35 135.72 175.78 135.96 174.07 134.72 170.15 134.7 169.11 135.3 168.22 136.67 166.9 138.18 165.9 140.2 165.16 142.1 165.13 144.51 164.57 145.97 164.82 147.19 165.58 149.23 166.3 150.86 165.68 153.02 166.04 158.14 163.28 159.24 161.73 160.31 161.28 163.15 161.13 165.14 159.88 165.53 157.63 166.58 157.4 167.14 157.73 166.99 159.69 168.93 158.51 173.5 158.33 174.25 158.68 175.85 158.63 177.27 158.43 178.44 157.3 179.49 156.88 181.17 156.94 182.85 157.49 188.18 157.94 190.96 155.8 195.85 158.67 197.09 160.15 198.93 164.72 199.4 165.25 201.92 165.59 202.52 165.87 202.51 166.95 204.78 168.94 204.88 169.84 205.41 170.19 206.54 171.93 207.36 174.37 207.57 175.24 207.12 176.05 208.65 176.58 209.11 177.78 209.27 179.47 213.24 182.15 213.28 183.49 212.92 184.51 211.69 185.9 211.93 186.84 213.25 187.05 214.02 188 215.12 188.12 216.65 189.24 217.41 190.47 217.81 193.07 218.71 193.01 220.08 195.4 221.41 195.98 223.47 196.4 225.51 201 227.35 201.1 228.75 201.76 230.1 203.4 230.65 203.43 231.13 202.68 232.03 202.31 233.44 202.24 235.35 201.63 236.34 202.51 238.16 201.55 241.24 202.76 242.02 203.83 243.82 203.58 244.36 204.2 244.62 206.28 245.59 206.47 246.16 207.22 246.58 208.38 246.74 209.42 246.32 210.61 247.72 212.23 247.92 215.1 249.02 215.6 249.41 216.43 251.12 218.62 252.45 219.6 254.07 219.96 255.69 219.75 257.44 219 258.48 217.9 259.28 216.12 261.72 216.01 264.75 216.71 264.36 220.56 264.47 221.97 266.31 222.19 269.65 223.56 269.78 223.86 268.73 226.44 268.88 227.65 269.63 228.67 273.09 228.03 275.07 226.9 276.5 225.5 277.76 225.62 279.22 225.1 280.58 223.86 282.54 223.92 284.06 223.49 285.6 223.81 290.58 224.15 292.42 224.71 294.23 224.83 295.6 225.78 296.24 226.78 294.51 232.57 293.6 233.19 295.04 235.02 295.27 235.64 295.14 237.83 295.71 238.57 298.93 240.52 299.5 241.17 299.48 243 303.13 245.12 304.11 246.23 304.39 247.15 303.21 249.74 303.16 249.74 303.42 252.96 304.23 254.93 305.37 255.97 308.23 256.54 309.73 257.33 310.4 259.09 311.83 261.46 316.49 265.03 319.9 266.56 321.96 267.12 323.97 267.36 325.46 267.86 328.4 268.41 332.06 268.63 333.37 268.13 335.13 268.99 Z M 212.79 332.77 212.24 333.3 210.45 333.1 209.77 333.79 209.85 334.63 209.4 335.29 209.07 336.81 209.23 337.41 210.15 337.95 210.71 338.27 211.48 338.27 213.07 339.33 214.22 338.86 214.96 338.76 215.72 338.97 217.1 338.08 217.22 338.12 217.67 338.26 218.36 338.04 218.9 337.13 218.76 335.89 217.64 334.6 214.45 333.11 214.9 331.47 214.92 330.78 214.64 330.15 214.89 327.73 214.6 326.76 214.7 326.18 214.79 325.7 214.4 325.44 214.02 325.18 211.55 325.49 211.51 325.53 210.8 326.31 210.72 327.26 211.01 327.68 211.88 328.89 212.75 329.35 213.07 330.04 213.04 332.14 212.79 332.77 Z" fill-rule="evenodd"/>
<path 
class="district-path"
    data-id="malappuram"
    data-name="Malappuram"
    role="button"
    tabindex="0"
    d="M 175.85 158.63 174.25 158.68 173.5 158.33 168.93 158.51 166.99 159.69 167.14 157.73 166.58 157.4 165.53 157.63 165.14 159.88 163.15 161.13 160.31 161.28 159.24 161.73 158.14 163.28 153.02 166.04 150.86 165.68 149.23 166.3 147.19 165.58 145.97 164.82 144.51 164.57 142.1 165.13 140.2 165.16 138.18 165.9 136.67 166.9 135.3 168.22 134.7 169.11 134.72 170.15 135.96 174.07 135.72 175.78 134.96 176.35 133.91 176.62 132.61 176.56 131.58 177.3 130.88 178.15 129.22 178.76 126.08 179.39 124.11 181.08 121.3 181.67 119.96 181.69 118.08 181.34 116.97 180.82 116.21 181.1 115.46 181.69 114.26 183.98 112.1 185.91 110.12 187.31 108.29 189.18 107.15 189.6 106.55 189.07 105.36 188.93 103.49 189.5 100.5 189.71 99.31 189.52 98.25 189.94 99.03 191.93 100.34 193.76 101.65 194.8 102.39 195.8 103.35 198.89 103.81 203.29 104.93 204.94 103.71 206.26 102.99 208.27 102.89 209.19 104.15 212.15 103.39 213.15 103.98 215.61 104 218.47 102.24 219.05 101.59 218.43 100.38 218.02 99.48 218.67 97.54 220.7 98.53 223.74 99.33 224.89 99.55 226.19 101.14 230.83 99.78 227.08 99.67 226.78 98.35 223.79 97.87 222.73 97.68 222.56 96.84 220.35 96.56 220.07 96.45 219.67 95.9 218.95 95.62 218.73 94.96 216.75 94.69 216.42 94.38 215.29 94.24 215.22 94.06 214.52 93.92 214.44 93.78 214.37 92.98 211.89 92.69 210.51 92.55 210.43 92.42 209.86 92.28 209.79 90.52 205.76 89.88 204.63 89.6 203.58 89.34 203.01 88.73 201.43 88.66 201.14 88.47 200.95 86.3 194.98 85.52 193.12 85.1 192.75 84.54 191.31 84.4 191.23 82.03 184.67 81.88 184.6 80.81 182.04 80.35 180.82 79.89 179.58 79.54 178.85 78.95 177.18 78.59 176.16 78.46 176.08 78.18 175.8 77.84 174.87 77.7 174.79 77.08 173.28 77.09 173.07 76.87 172.93 76.74 172.85 75.95 169.64 75.04 167.35 74.89 167.28 74.87 166.93 73.25 162.2 72.17 159.42 72.03 159.34 71.81 159.2 71.82 158.98 71.68 158.91 71.2 157.48 71.05 157.4 70.84 156.88 70.58 156.1 70.44 156.03 69.16 152.83 68.95 152.69 68.53 152.18 67.83 150.21 67.3 149.42 66.41 147.23 65.71 146.51 65.34 145.44 65.14 145.26 65.01 144.76 64.56 143.72 64.35 143.57 64.21 143.5 63.26 140.92 63.11 140.85 62.97 140.77 62.93 140.44 62.74 140.26 61.8 137.87 61.22 136.89 61.03 136.71 59.36 132.54 59.08 132.25 58.93 132.18 58.36 130.75 58.26 130.25 58.12 130.17 58.06 129.61 57.71 129.32 57.36 128.95 56.75 127.66 55.05 126.28 54.77 125.7 54.71 125.42 53.36 124.18 53.16 123.75 53.03 123.4 52.32 122.74 52.19 122.38 52.19 122.24 51.91 122.02 51.34 121.36 51.22 121.1 50.52 119.51 50.17 119.22 49.33 118.21 49.17 117.9 48.72 116.92 48.43 116.69 48.21 116.54 47.88 115.62 47.66 115.47 46.84 114.11 46.01 112.53 45.82 111.67 45.52 111.38 45.39 111.31 45.06 110.24 44.7 109.88 44.49 109.73 43.42 106.38 42.51 105.22 42.33 104.46 42.12 103.51 42.15 102.16 42.57 101.47 42.56 100.54 42.26 99.62 41.53 97.71 40.91 95.92 40.01 95.53 39.62 96.4 39.23 97.49 38.71 97.95 37.9 97.12 37.54 96.39 37.5 95.54 37.26 94.9 35.23 89.16 34.19 86.7 34 86.51 33.86 86.08 33.58 85.79 33.4 85.59 32.87 83.8 32.72 83.73 32.58 83.66 32.44 83.23 31.93 82.16 31.65 81.87 31.42 81.12 31.24 80.94 28.14 72 27.83 71.29 27.19 70.57 26.8 69.35 26.65 69.27 26.51 69.2 26.05 67.68 25.4 66.12 25.23 65.99 24.85 64.84 23.9 62.06 23.55 61.62 22.8 60.11 22.73 59.76 22.59 59.68 21.62 56.48 21.48 56.4 21.34 56.33 20.54 54.47 20.39 54.39 20.32 54.02 20.18 53.94 19.86 53 18.87 50.89 17.98 47.66 17.83 47.59 17.74 47.07 17.6 47 17.53 46.67 17.38 46.6 17.25 46.52 17.12 46.22 16.62 44.92 16.22 43.93 16.07 43.85 15.47 42.16 15.33 42.09 15.19 42.01 14.78 40.87 14.64 40.8 13.07 36.68 12.93 36.6 12.59 35.65 12.44 35.57 11.45 32.66 11.31 32.59 10.62 30.78 10.48 30.72 10.34 30.64 9.45 28.71 7.85 27.06 5.88 21.68 3.15 16.67 1.33 13.43 1 12.52 4.77 12.15 5.33 13.08 5.45 13.73 6.04 14.04 7.83 14.19 8.8 13.06 9.76 12.39 10.63 11.89 11.65 12.11 12.8 10.82 13.96 10.69 14.88 9.87 15.21 9.72 21.58 7.12 24.09 6.84 29.39 4.62 31.29 4.69 32.28 6.01 32.9 6.02 33.5 5.37 33.93 5.56 34.05 6.6 34.57 6.72 38.11 5.87 39.8 5.04 41.46 3.25 40.28 1.49 40.47 1 41.37 1.11 42.54 1.88 43.89 3.29 45.03 2.62 45.45 2.66 45.1 6.4 45.45 7.71 46.25 9.04 46.51 10.5 46.04 11.55 45.15 12.51 43.89 13.28 42.33 15.38 41.22 17.47 40.63 17.74 39.43 17.37 38.92 18.17 39.03 20.06 39.71 20.4 40.17 19.42 40.72 19.68 41.63 19.04 43.89 20.83 47.65 22.26 47.24 23.37 44.8 25.12 45.1 25.74 46.06 26.52 48.33 26.96 49.82 24.79 51.05 24.51 51.91 24.92 53.7 24.09 55.81 23.58 57.37 24.53 58.37 24.27 59.44 24.79 60.45 26.31 61.36 28.32 60.24 29.96 61.7 33.54 60.99 34.52 60.23 33.45 59.12 33.04 57.89 33.32 57.4 38.6 57.93 40.87 58.89 41.88 61.25 41.88 62.18 42.33 63 41.44 64.61 42.54 65.95 42.51 67.5 40.19 68.83 39.83 69.98 39.88 70.55 38.61 71.12 38.49 71.34 36.89 70.57 32.6 69.76 31.49 70.91 30.07 72.66 31.03 75.06 31.45 76.68 32.01 78.01 34.08 79.28 36.9 81.83 37.63 83.76 37.71 85.33 38.48 86.83 38.37 87.62 37.88 89.29 37.83 91.22 36.75 91.24 39.09 92.83 39.97 94.53 40.08 94.58 40.59 92.63 43.84 91.55 45.19 91.43 47.04 91.14 47.53 88.28 48.8 88.83 50.22 90.31 51.67 92.59 54.51 93.93 55.3 95.07 55.11 97.34 55.44 99.69 53.67 101.29 52.04 103.58 52.15 105 52.66 107.22 52.76 107.65 53.39 106.6 56.51 106.37 58.69 107.55 59.76 109.08 60.63 109.78 61.46 109.61 63.26 109.14 64.21 108.22 64.79 107.86 66.69 109.16 65.93 110.2 65.62 111.21 68.93 112.12 69.66 114 72.29 116.64 72.86 118.22 72.54 118.81 71.83 118.96 69.2 119.38 68.74 122.36 68.45 122.58 67.1 124.45 65.06 125.28 63.41 126.33 62.78 128.11 58.81 128.89 57.77 130.9 56.93 132.26 58.06 134.72 59.14 135.44 61.63 136.31 61.97 137.7 61.07 138.69 60.86 140 62.16 140.83 64.36 144.06 65.21 146.99 65.19 147.18 67.71 146.51 68.55 144.33 68.78 143.33 70.37 141.31 69.44 139.23 68.86 136.65 68.41 135.53 68.43 134.08 71.53 133.05 71.79 130.96 71.82 129.62 73.45 129.11 75.12 129.58 79.39 131.86 84.55 132.33 86.19 133.8 85.65 135.68 85.39 137.05 85.71 138.28 86.57 139.73 86.44 139.63 92.63 139.83 92.87 140.59 92.66 141.46 93.16 142.74 94.35 144.77 94.59 147.1 94.42 149.24 94.89 149.48 96.52 150.55 97.18 150.66 98.2 150.34 100.18 151.04 102.91 149.86 105.05 151.15 105.59 155.79 104.97 156.97 104.35 158.02 102.81 160.95 101.59 161.24 98.97 160.47 97.77 160.3 97 161 96.36 162.56 96.07 163.28 95.61 163.77 94.48 164.4 94.12 165.5 94.34 167.17 94.15 168.12 92.58 168.88 92.5 170.04 94.76 171.06 95.06 172.53 93.62 174.28 92.84 176.07 98.17 176.19 100.71 177.37 102.36 176.82 104.3 175.02 104.67 174.35 106.17 172.6 107.5 170.85 108.21 167.21 109 165.29 107.24 159.25 106.95 159.02 107.76 160.14 108.83 160.49 114.06 158.95 120.91 160.25 122.55 161.03 124.45 162.28 125.47 163.04 127.28 163.86 127.87 165.31 127.62 166.86 128.28 168 129.41 168.88 130.85 170.14 130.7 170.84 131.68 173.38 131.05 175.72 132.63 176.52 133.5 176.53 135.01 175.89 137.94 175.38 139.23 174.29 140.64 172.96 141.45 173.32 142.55 174.33 143.82 174.95 147.66 176.06 148.29 176.09 149.85 177.07 151.83 179.23 153.68 179.38 154.52 176.63 157.21 175.85 158.63 Z"/>
<path 
class="district-path"
    data-id="palakkad"
    data-name="Palakkad"
    role="button"
    tabindex="0"
    d="M 735.12 1166.72 734.25 1168.44 732.89 1170.27 732.43 1171.38 731.6 1172.11 732.19 1174.7 728.45 1175.53 727.59 1174.08 723.31 1174.71 721.58 1175.83 720.67 1177.64 721.16 1179.41 719.18 1181.34 717.91 1182.07 716.55 1182.47 716.9 1183.59 717.48 1184.46 717.22 1186.18 718.16 1186.73 720.03 1186.83 720.27 1188.72 720.3 1188.72 721.2 1190.25 724.84 1192.99 726.35 1197.95 729.97 1199.66 730.15 1201.54 731.68 1202.73 732.02 1204.31 731.53 1205.71 732.16 1207.26 732.23 1208.43 731.4 1210.89 731.85 1211.68 731.79 1212.52 733.16 1214.27 734.7 1213.51 733.78 1212.54 734.72 1211.32 736 1210.58 737.33 1211.39 739.42 1211.99 740.25 1213.08 738.59 1215.35 739.92 1219.57 741.61 1219.61 742.59 1219.89 744.7 1221.14 745.47 1222.07 745.25 1224.37 746.49 1226.24 748.04 1227.1 750.5 1227.41 751.02 1228.43 751.48 1230.16 751.55 1231.47 750.68 1232.6 752.32 1234.6 752.43 1235.23 751.47 1235.8 752.79 1238.73 749.39 1243.21 748.07 1244.52 747.72 1245.11 747.96 1246.51 746.64 1248.56 745.57 1249.26 743.5 1249.67 742.88 1252.93 742.68 1256.34 741.09 1256.99 739.73 1258.03 737.57 1258.32 737.88 1259.54 738.79 1261.01 737.4 1262 735.4 1261.8 732.75 1260.96 728.82 1259.25 726.5 1257.85 724.55 1256.19 721.13 1254.47 719.72 1253.25 718.23 1252.78 716.7 1251.04 714.82 1250.06 712.19 1249.27 709.99 1247.58 708.45 1245.82 704.57 1243.83 703.6 1242.37 700.75 1242 695.58 1239.8 686.34 1237.52 683.85 1237.51 680.64 1238.53 679.37 1240.99 678.29 1242.27 677.47 1246.66 675.18 1247.32 674.04 1248.81 674.84 1252.12 675.95 1254.99 679.1 1259.61 676.54 1260.3 671.85 1260.73 669.82 1258.45 668.63 1257.25 666.01 1256.22 663.94 1256.04 662.87 1256.74 662.12 1258.26 661.72 1260.02 660.45 1260.45 657.29 1260.89 654.93 1260.6 653.79 1261.08 651.87 1262.54 649.49 1263.76 648.52 1262.35 643.47 1258.21 645.63 1256.38 644.79 1254.11 643.53 1253.18 642.64 1251.67 639.24 1248.2 636.05 1248.17 635.11 1248.87 634.44 1249.89 633.3 1249.55 632.24 1248.7 629.2 1247.94 626.32 1246.22 625.67 1246.53 624.45 1246.04 623.6 1244.66 623.39 1243.68 622.42 1243 622.3 1240.59 620.81 1239.37 618.08 1238.02 617.23 1237.82 615.89 1238.07 614.47 1234.61 612.59 1233.5 611.2 1234.57 609.71 1234.39 608.98 1235.79 607.7 1235.57 606.69 1234.47 603.21 1233.84 602.53 1232.76 600.96 1232.97 601.44 1235.11 600.6 1236.81 600.47 1238.02 601.39 1238.5 605.54 1243.14 604.86 1245.02 603.78 1244.89 602.73 1245.48 602.73 1246.06 604.22 1246.28 605.21 1247.65 604.92 1248.9 599.05 1248.98 598.64 1249.41 598.58 1250.29 598.07 1250.47 598.79 1251.26 597.4 1252.35 595.15 1252.04 594.82 1253.21 591.06 1253.21 589.53 1253.01 584.87 1251.67 583.91 1251.11 582.97 1251.14 580.31 1253.22 579.34 1253.54 578.99 1254.43 578.23 1254.9 577.69 1254.14 577.23 1253.89 576.81 1254.48 575.67 1254.66 574.1 1254.42 573.99 1256.31 573.67 1256.98 572.94 1258.47 572.91 1258.53 571.7 1258.6 570.75 1259.14 570.32 1258.47 570.08 1257.77 569.62 1256.38 569.54 1255.2 569 1255.2 568.56 1257.28 567.26 1257.44 567.1 1254.41 566.52 1253.8 565.3 1253.29 564.48 1252.69 563.97 1252.1 563.55 1251.76 562.69 1251.1 562.02 1250.58 561.41 1249.51 561.22 1249.17 560.92 1249.04 560.85 1248.75 560.44 1248.24 559.46 1246.93 559.16 1246.3 558.87 1245.72 558.01 1244.81 556.26 1242.78 554.73 1241.06 554.73 1240.92 554.04 1240.19 553.77 1239.97 553.77 1239.83 553.56 1239.69 553.49 1239.4 552.95 1238.68 552.96 1238.53 552.6 1238.23 552.39 1238.09 552 1237.22 551.78 1237.08 551.79 1236.93 551.09 1236.21 550.87 1235.99 550.74 1235.71 550.05 1235.05 549.51 1234.53 549.24 1233.89 548.06 1232.79 548.06 1232.64 546.88 1231.56 546.82 1231.36 545.97 1230.63 545.9 1230.42 545.65 1230.17 543.2 1228.09 542.03 1227.25 540.13 1226.25 539.6 1226.02 539.22 1225.87 538.38 1225.27 537.96 1224.98 536.96 1225.02 535.25 1225.99 535.08 1226.1 534.86 1226.02 534.28 1225.7 534.23 1225.54 533.64 1225.15 530.45 1223.27 530.17 1223.06 529.99 1222.41 529.77 1222.26 529.1 1221.1 528.98 1220.75 528.84 1220.68 528.18 1218.17 527.67 1213.84 526.72 1210.89 526.58 1210.48 526.02 1209.25 525.89 1209.18 525.75 1208.75 525.61 1208.67 525.47 1208.59 524.61 1206.3 524.39 1204.24 523.21 1200.52 522.62 1196.68 521.95 1194.25 520.98 1190.95 520.74 1190.1 517.94 1183.28 517.88 1182.85 517.11 1180.78 516.66 1179.07 515.66 1176.06 514.35 1172.98 513.92 1172.35 513.32 1170.81 513.12 1170.62 511.99 1167.92 511.83 1167.78 511.56 1167.03 511.09 1166.36 511.02 1166.14 510.9 1165.71 510.44 1164.63 510.16 1164.34 509.87 1164.06 509.31 1162.84 509.16 1162.33 510.77 1161.38 506.95 1152.4 507.45 1151.45 507.99 1151.14 508.61 1150.79 508.87 1150.79 510.22 1150.82 512.87 1150.32 514.24 1150.31 515.99 1150.96 515.98 1150 515.57 1148.94 516.02 1147.74 517.05 1147.4 517.91 1146.3 524.82 1146.75 526.85 1146.37 526.91 1149.19 528.12 1150.37 529.37 1154.48 531.62 1155.4 533.71 1154.98 535.15 1154.98 537.34 1152.82 540 1153.27 540.37 1151.98 541.5 1151.27 541.75 1148.83 543.76 1148.61 545.64 1148.71 549.08 1149.07 550.42 1148.41 550.96 1147.5 552.06 1146.93 555.49 1146.51 557.12 1143.36 558 1142.47 562.2 1142.18 562.4 1146.71 562.22 1150.63 560.75 1151.46 560.14 1152.23 561.57 1154.06 562.29 1155.42 562.53 1156.71 562.46 1158.55 563.52 1159.56 567.71 1159.9 575.09 1161.67 579.63 1162.23 581.36 1162.45 583.81 1163.26 585.25 1162.48 587.25 1163.34 588.06 1161.87 588.82 1161.84 589.86 1162.95 591.2 1162.93 592.17 1161.8 593.39 1161 594.12 1161.53 594.46 1165.96 598.23 1165.43 598.24 1162.18 597.46 1160.88 597.04 1159.3 597.03 1158.31 602.5 1153.33 609.48 1154.53 611.52 1155.24 612.29 1155.95 612.78 1157.32 614.72 1158.98 616.37 1159.62 617.54 1159.28 618.94 1159.5 622.68 1158.04 623.25 1156.53 623.2 1153.65 624.67 1151.73 626.18 1152.26 626.67 1151.77 627.1 1149.8 628.48 1150.34 630.92 1148.04 635.53 1149.95 637.73 1148.04 638.45 1149.25 639.37 1152.37 639.88 1152.57 640.21 1150.26 643.04 1149.98 645.54 1150.41 650.11 1152.05 652.82 1152.42 653.83 1152.35 655.36 1151.6 659.19 1148.95 654.23 1147.38 651.7 1145.75 649.72 1145.78 647.71 1145.32 646.82 1139.94 647.49 1138.27 647.52 1136.93 648.14 1135.11 650.39 1135.76 653.69 1138.33 661.58 1142.94 664.77 1144.52 667.99 1145.83 669.91 1147.45 673.05 1145.33 675.78 1147.93 677.09 1148.42 678.08 1149.11 680.3 1148.87 681.25 1149.84 682.39 1149.95 683.42 1150.5 685.38 1149.45 687 1149.19 687.32 1149.72 687.4 1150.65 687.93 1151.34 689.17 1152.07 690.59 1152.37 691.14 1152.79 691.33 1153.61 692.3 1154 695.02 1154.28 695.7 1154.92 697.71 1155.61 698.85 1156.19 699.94 1157.1 703.51 1158.81 704.92 1158.94 708.21 1159.72 712.12 1161.35 712.84 1161.83 713.58 1161.74 715.83 1162.58 717.6 1162.74 718.18 1162.27 719.07 1162.3 718.59 1163.9 722.1 1165.09 724.71 1164.97 725.98 1164.51 727.47 1165.37 728.67 1165.39 730.11 1164.78 733.44 1166.34 734.28 1167.18 735.12 1166.72 Z"/>
<path 
class="district-path"
    data-id="thrissur"
    data-name="Thrissur"
    role="button"
    tabindex="0"
    d="M 555 920.99 554.56 921.84 554.35 922.95 555.77 923.91 560.14 925.41 564.53 926.23 565.36 925.86 566.33 925.06 567.38 924.84 568.39 925.39 569.07 926.38 570.83 926.38 571.57 927.44 572.29 927.94 574.41 928.03 575.58 928.47 576.26 930.34 577.32 930.98 578.84 931.32 582.77 934.03 584.36 934.75 585.84 934.94 587.07 935.96 589.27 937.09 590.63 937.3 593.21 934.34 593.99 933.84 595.85 934.61 597.49 935.71 600.12 936.11 602.1 936.97 608.68 941.27 611.67 943.62 616.52 948.82 616.67 950.17 618.58 951.59 624.38 959.21 626.3 960.76 627.94 959.89 629.27 961.57 631.15 962.94 634.81 964.52 636.19 966.5 637.26 968.36 640.03 974.75 640.38 977.49 642.9 979.38 644.9 982.39 647.81 985.11 647.78 985.92 646.06 986.88 645.62 987.56 645.64 989.1 646.26 990.38 650.18 994.86 648.7 996.53 642.93 993.16 640.26 990.73 638.68 991 637.56 992.03 636.92 992.98 637.24 994.36 636.95 994.82 635.69 995.13 635.36 995.76 635.95 997.02 635.86 998.74 636.65 1000.79 636.64 1003.47 637.15 1005.85 634.51 1007.02 633.84 1007.83 634.2 1008.9 634.99 1011.22 634.78 1014.07 635.45 1020.78 639.53 1021.1 640.7 1025 646.6 1030 648.84 1031.52 650.26 1031.09 651.09 1032.55 653.74 1035.18 655.96 1035.31 657.49 1032.25 659.63 1030.34 662.38 1032.21 665.33 1037.06 664.88 1038.25 665.74 1039.47 665.76 1040.73 665.12 1042.7 659.44 1044.05 657.73 1044.89 656.09 1047.08 654.07 1049.22 651.73 1049.59 651.07 1051.01 652.87 1052.92 652.24 1053.76 651.22 1054.32 650.92 1056.82 650.03 1056.68 648.83 1057.55 647.14 1058.09 646.32 1058.01 646.04 1057.02 646.11 1056.18 645.67 1055.47 642.01 1055.02 637.93 1052.47 635.83 1050.71 634.02 1049.7 632.04 1049.29 630.33 1049.22 627.68 1047.89 624.54 1045.79 623.83 1047.86 623.09 1049 621.55 1048.95 619.55 1048.22 618.25 1048 616.82 1048.02 616.17 1049 615.15 1049.34 613.91 1047.43 612.42 1046.57 611.47 1046.89 607.96 1046.79 607.44 1047.81 606.52 1047.24 605.49 1047.52 605.64 1048.63 605.23 1049.68 605.22 1049.68 602.92 1049.09 601.98 1049.26 599.07 1050.47 598.06 1051.18 596.05 1051.4 595.3 1050.4 594.6 1047.85 593.93 1047.23 592.39 1047.43 591.89 1046.9 592.78 1044.41 592.1 1043.45 591.74 1042.14 590.86 1040.66 589.79 1040.97 586.78 1040.89 585.82 1041.89 586.06 1043.31 585.04 1043.95 581.95 1045.15 580.58 1046.56 578.82 1046.67 578.21 1046.14 577.43 1044.46 576.47 1043.73 576.25 1042.1 576.35 1040.77 575.96 1039.95 573.96 1039.52 571.73 1039.45 569.55 1038.12 567.46 1038.73 564.33 1038.34 561.56 1038.52 557.61 1039.94 557.38 1041.85 556.72 1043.21 556.02 1043.88 554.65 1041.9 553.85 1041.8 553.21 1042.66 552.82 1044.13 553.21 1045.01 549.37 1044.89 547.92 1045.38 547.83 1046.95 547.52 1047.11 546.27 1045.67 545.58 1045.88 545.65 1048.44 544.67 1048.47 542.05 1049.92 541.91 1050.94 542.61 1052.22 542.54 1053.57 542.07 1055.26 543.43 1057.3 543.64 1058.24 542.75 1058.95 541.92 1058.19 539.02 1057 537.78 1057.26 536.14 1058.65 533.87 1060.03 532.38 1060.36 531.24 1060.17 530.89 1058.62 530.12 1057.39 528.62 1056.89 527.32 1057.12 526.04 1059.01 524.77 1059.31 524.07 1058.58 523.06 1059.24 522.88 1060.01 521.97 1059.9 521.33 1061.08 520.89 1061.35 518.29 1061.25 518.25 1063.57 516.44 1063.02 515.97 1059.04 516.68 1058.15 516.15 1056.92 516.01 1055.97 515.31 1055.57 516.94 1053.28 515.26 1052.27 512.3 1051.21 513.07 1046.18 513.88 1044.68 514.74 1043.62 515.22 1042.29 514.96 1040.35 515.57 1039.31 515.5 1036.54 515.87 1033.88 515.79 1032.72 515.12 1031.7 513.02 1031.61 511.13 1030.72 507.6 1030.51 507.05 1028.98 507.18 1024.14 506.87 1021.62 502.71 1019.65 502.41 1016.5 502.66 1013.93 494.55 1015.99 490.66 1017.43 488.56 1014.99 486.93 1014.82 486.82 1014.12 486.72 1013.55 485.42 1013.24 483.75 1014.31 483.5 1016.14 479.46 1017.96 480.12 1014.87 480.36 1012.55 480.69 1005.11 481.07 1002.94 481.42 995.34 481.84 991.44 481.41 986.67 481.14 982.26 481.33 980.43 483.08 974.62 479 973.09 474.95 971.21 475.09 967.17 475.91 964.3 476.37 961.51 476.56 956.55 476.36 954.08 475.06 950.46 473.99 948.51 473.34 945.88 471.47 941.05 472.15 938.41 476.34 933.55 475.64 929.37 473.7 927.26 474.96 926.37 475.97 925.93 478.07 925.02 480.9 929.52 484.04 929.65 486.47 931.13 487.72 931.48 489.42 931.28 492.3 930.49 496.39 928.45 497.89 926.72 499.3 925.69 501.56 923.37 505.81 924.61 507.95 923.46 509.63 923.81 513.34 922.33 516.57 922.39 518.05 922.83 520.74 930.89 524.11 930.81 525.67 931.06 526.32 931.49 526.84 934.29 527.36 934.49 527.29 936.55 528.01 936.87 528.62 938.47 529.96 938.2 531.83 937.47 532.6 934.66 532.46 933.56 534.6 931.33 535.62 931.32 537.35 932.3 538.97 931.29 539.58 930.02 539.14 928.34 539.48 926.76 539.47 925.42 540.62 925.48 543.51 924.06 544.61 924.45 546.08 924.62 547.72 926.04 548.07 925.29 549.04 925.93 550.5 925.16 549.33 923.99 548.82 923.1 552.32 920.38 554.35 920.67 555 920.99 Z"/>
<path 
class="district-path"
    data-id="ernakulam"
    data-name="Ernakulam"
    role="button"
    tabindex="0"
    d="M 214.2 342.66 216.96 342.98 217.96 343.32 219.94 346.38 220.49 347.86 220.12 349.1 220.46 350.04 221.73 350.7 222.49 351.84 223.48 351.68 224.71 351.19 225.91 350.29 227.36 348.23 228.23 347.66 229.44 347.63 231.22 348.03 232.7 347.64 233.25 345.4 232.8 344.9 230.11 343.52 229.8 342.4 230.05 341.29 229.75 340.43 228.95 339.48 229.3 339.03 230.58 339.27 231.43 339.17 232.43 338.43 233.72 338.79 234.88 338.34 239.42 334.63 240.49 332.42 242.88 332.63 249.94 326.8 253.03 325.48 253.94 322.74 254.78 322.01 257.61 320.6 258.58 319.88 260.31 313.9 261.24 313.21 262.28 312.9 263.87 313.12 265.12 313.8 266.64 313.72 268.29 314.08 270.62 315.63 271.48 316.7 271.87 317.82 273.39 318.83 274.95 318.42 275.56 316.78 278.34 317.48 280.19 317.29 280.45 316.38 279.89 314.97 278.77 313.95 278.53 312.11 279.73 311.41 283.81 311.72 285.68 312.12 287.13 313.17 290.66 314.7 291.95 315.87 292.37 318.68 291.19 320.59 290.88 323.42 289.78 324.5 289.7 325.31 290.72 326.39 293.86 328.79 292.87 330.54 295.12 330.46 296.83 331.05 299.94 332.84 300.84 333.67 302.03 336.18 303.72 336.57 305.52 338.36 308.2 339.92 308.55 341.09 308.53 342.13 309.85 342.93 310.17 343.93 312.64 343.46 316.12 343.9 318.27 343.53 318.99 344.28 321.18 344.57 324.44 344.19 326.82 344.98 327.66 345.93 330.62 347.54 330.15 348.23 328.4 349.18 327.53 350.15 326.22 350.99 326.82 354.36 326.77 356.46 326.25 360.26 325.61 361.68 325.58 365.79 325.03 366.94 324.87 369 327.07 370.66 327.42 373.42 328.1 374.24 331.1 376.3 333.93 378.09 337.46 378.84 338.27 379.63 340.05 380.62 341.74 380.85 343.48 381.5 343.61 383.9 344.06 385.58 343.91 387.21 346.93 390.53 347.67 391.19 348.94 391.84 350.61 393.61 352.82 394.85 353.9 396.05 356.81 398.09 359.42 399.55 362.28 401.79 364.28 402.37 367.39 403.76 369.98 405.98 370.91 405.01 372 404.78 373.55 405.52 375.14 403.62 376.72 403.97 380.29 400.08 381.11 400.05 385.14 404.66 385.44 407.03 386.64 408.55 385.16 409.96 386.7 412.07 389.67 412.59 392.13 414.28 394.82 415.23 397.24 417.68 399.05 420.25 401.48 422.24 400.69 423.96 401.11 426.09 402.13 429.27 401.16 431.69 398.49 429.81 393.88 435.5 391.84 434.68 390.05 435.02 390.3 437.3 388.6 438.91 388.19 442.69 388.6 447.09 386.89 449.96 386.21 452.46 387.75 456.33 392.06 458.47 393.21 457.33 393.79 457.66 393.62 459.22 394.18 460.38 394.18 461.73 393.17 463.5 390.71 464.64 385.22 465.83 379.27 470.81 379.52 473.74 376.6 475.13 374.95 477.25 372.84 478.86 371.14 479.77 368.54 479.26 365.42 479.48 363.42 479.03 362.22 478.5 359.39 481.59 357.99 482.03 356.81 482.72 354.96 483.93 353.36 482.82 352.23 481.64 349.08 479.38 346.86 480.91 345.09 483.4 343.93 484.35 342.17 484.96 337.03 485.1 335.19 485.51 331.37 488.5 330.09 488.78 326.35 486.62 325.8 487.51 325.18 490.11 324.57 490.74 323.29 491.24 321.66 491.38 319.85 492.33 318.53 494.05 316.61 497.69 314.04 499.22 313.19 502.15 314.76 503.4 318.72 505.09 320.55 504.49 322.27 504.74 322.93 505.33 322.45 506.63 320.92 508.91 317.65 510.09 316.26 509.87 315.13 510.38 314.6 511.48 311.96 513.91 311.57 515.02 311.91 516.15 313.02 518.2 313.14 519.15 312.84 520.74 311.78 519.7 309.7 518.59 308.53 519.09 307.51 520.1 305.17 521.67 303.34 523.91 303.28 523.88 302.97 523.53 302.67 522.82 302.24 521.98 302.06 521.58 301.22 520.78 301.11 519.85 299.83 519.11 299.15 517.67 298.31 516.8 297.44 514.58 297.44 513.31 297.99 512.9 300.57 512.97 301.71 513.03 302.14 512.38 301.47 510.24 299.95 508.99 298.88 508.97 298.15 509.57 297.86 509.91 297.46 510.34 297.12 510.67 296.4 510.58 295.21 509.91 295.01 509.27 294.58 508.97 293.85 506.9 293.56 506.75 291.95 501.4 291.81 501.32 289.37 494.66 288.96 493.28 286.26 484.47 286.11 484.01 285.97 483.94 285.57 483.08 284.05 478.29 283.9 478.21 283.5 477.07 282.28 474.27 282.14 474.2 281.63 472.71 281.05 470.73 280.59 469.55 280.45 469.48 280.3 469.33 280.06 468.56 279.87 468.34 279.56 467.61 279.35 467.46 278.35 464.81 278.16 463.97 278.09 463.67 276.61 462.42 276.48 461.99 275.67 460.58 275.31 460.19 275.52 452.46 275.53 452.4 275.34 451.05 274.9 450.68 273.11 449.01 272.9 448.57 272.84 448.29 272.56 448.14 272.14 447.78 272.07 447.57 271.92 447.56 271.52 446.34 271.39 446.2 270.9 445.62 270.72 445.22 269.47 442.82 268.89 442.37 267.98 440.48 267.6 440 266.85 438.71 266.71 438.63 266.44 437.63 266.09 437.34 265.95 437.19 265.81 437.05 265.55 436.26 265.41 436.19 264.68 434.59 264.41 433.8 264.27 433.73 264.01 433.18 263.2 430.77 263.02 430.59 263.02 430.45 262.98 430.31 262.7 430.09 262.49 430.02 262.5 429.73 261.69 428.84 261.56 428.49 261.17 428.14 261.18 427.86 260.06 426.83 259.79 426.12 259.58 425.97 259.38 425.54 255.66 421.9 253.25 420.46 251.85 419.77 251.05 419.37 248.51 418.31 246.08 417.83 244.49 418.07 243.61 418.68 243.25 418.75 242.04 418.22 241.55 417.85 241.55 417.71 241.49 417.42 241.14 417.21 240.59 415.91 240.31 415.69 239.44 414.8 239.23 414.59 239.08 414.44 238.35 413.73 238.15 413.44 238.02 412.86 237.85 412.68 236.71 408.37 235.23 404.36 234.82 402.15 234.63 401.51 234.48 401.44 233.45 397.78 233 396.15 231.86 393.29 231.73 393.16 231.26 392.59 230.96 392.29 230.92 392.05 230.62 391.71 229.91 389.84 229.77 389.55 229.63 389.47 229.6 388.82 229.7 388.39 228.73 387.15 227.9 384.69 227.17 383.33 226.31 380.31 225.73 378.1 224.93 375.68 223.44 371.1 222.93 369.88 222.78 369.8 222.64 369.73 221.89 367.85 218.74 359.28 218.47 358.92 218.34 358.61 218.2 358.53 216.66 354.86 215.08 351.25 214.8 350.95 214.59 350.81 214.2 349.81 213.43 348.51 212.88 347.5 212.67 347.36 212.54 346.93 211.93 346.01 213.17 344.95 213.82 344.19 214.02 343.38 214.2 342.66 Z"/>
<path 
class="district-path"
    data-id="idukki"
    data-name="Idukki"
    role="button"
    tabindex="0"
    d="M 496.75 499.7 494.92 499.29 493.09 499.99 488.75 498.62 485.58 498.57 485.73 501.12 484.13 505.56 485.96 507.63 487.19 509.51 485.98 514.88 487.59 518.79 486.41 521.32 485.83 525.52 486.13 527.03 483.74 527.09 481.81 528.18 480.82 528.83 479.55 530.91 476.48 531.67 474.95 532.6 472.37 532.21 470.61 532.45 469.29 533.26 467.09 533.86 465.54 535.33 461.74 540.36 461.72 542.34 462.3 543.62 461.34 544.86 461.6 545.74 460.03 547.01 458.37 547.7 455.11 546.79 453.92 548.17 449.88 547.45 449.53 549.32 446.66 551.33 447.05 553.36 446.54 555.35 447.46 556.42 448.99 555.59 449.61 555.52 449.98 554.93 453.81 554.67 456.7 555.1 460.29 556.03 459.95 557.7 459.23 559.36 459.12 561.2 461.49 562.7 462.22 563.39 464.81 563.4 472.9 564.05 473.08 565 472.31 567.39 470.63 570.72 469.19 570.45 466.54 570.48 465.32 570.01 462.81 570.04 461.76 568.83 461.19 568.86 460.17 569.62 459.49 572.99 459.67 574.46 459.26 575.99 458.09 577.15 458.11 583.34 458.96 585.05 460.86 586.98 461.34 588.45 461.1 592.42 458.75 592.38 457.75 592.03 457.29 590.49 456.07 590.27 452.63 590.29 450.33 588.3 448.62 588.99 447.43 589.83 445.78 589.63 444.67 589.22 442.65 589.44 441.63 588.99 440.05 589.87 439.1 592.56 435.7 598.35 433.03 598.29 429.75 598.66 428.54 596.97 428.22 595.53 426 593.3 425.5 591.93 425.48 590.43 424.19 590.05 423.14 590.67 421.97 592.55 421.38 594.96 419.32 595.19 416 594.73 415.28 593.33 415.43 591.8 414.19 591.05 411.68 592.37 411.04 591.74 410.43 589.87 409.47 589.87 408.03 589.98 406.7 591.26 406.69 593.17 406.4 594.6 403.94 597.49 402.72 597.83 400.9 596.94 399.57 595.84 398.41 595.34 397.41 595.61 397.08 597.89 397.89 599.59 397.94 600.91 396.84 601.16 394.11 600.4 393.27 600.91 393.03 602.32 393.08 603.72 392.34 604.88 391.59 605.04 389.88 604 388.88 605.5 388.96 607.21 389.4 609.27 389.06 611.07 387.93 612.58 386.31 613.34 378.2 613.96 374.17 612.23 373.08 611.51 371.09 611.13 369.81 611.84 368.08 614.96 367.34 617.53 365.98 617.69 365.32 618.73 366.72 620.38 368.33 621.41 367.91 623.36 372 624.52 371.61 625.15 372.5 626.37 372.21 627.38 370.74 627.16 370.43 627.61 369.44 637.41 370.07 637.7 369.63 640.12 371.38 640.05 371.47 641.8 372.04 643.36 373.72 643.16 375.49 643.56 376.88 642.74 378.02 644.37 378.18 645.72 379.03 647.03 378.79 648.2 378.24 648.85 378.35 649.89 376.66 650.44 375.84 651.61 374.25 652.72 373.54 655.59 372.79 655.93 372.36 655.34 371.5 655.96 369.94 655.82 369.25 655.29 367.7 657.29 364.59 658.09 362.56 658.96 360.1 660.85 358.32 660.3 358.01 659.5 356.86 658.87 355.52 658.84 355.31 658.04 354.81 658.6 351.87 658.95 351.65 661.16 350.82 660.96 350.7 659.32 348.68 659.31 348.26 658.67 347.36 658.89 346.59 659.63 345.23 660.11 344.67 660.96 342.69 661.05 342.61 661 341.89 658.76 341.74 658.69 340.71 655.11 340.57 654.78 340.28 654.66 337.93 649.79 336.56 647.64 335.48 642.73 334.46 639.46 333.29 636.28 331.55 634.62 330.45 633.25 330.24 632.08 329.76 630.38 328.32 627.77 326.86 626.53 326.07 624.64 325.97 622.38 324.76 616.67 324.3 613.36 324.12 611.98 323.2 607.05 322.26 601.59 321.28 597.26 319.6 590.32 319.35 588.83 318.54 584.76 316.47 576.47 316.24 575.3 315.47 571.28 315.17 567.73 315.21 564.96 313.17 558.1 312.48 554.68 312.16 553.44 311.71 551.29 311.65 551.05 310.74 547.69 310.57 546.05 308.73 539.83 306.83 534.62 306.04 532.04 305.9 531.96 304.84 527.47 303.43 523.96 303.34 523.91 305.17 521.67 307.51 520.1 308.53 519.09 309.7 518.59 311.78 519.7 312.84 520.74 313.14 519.15 313.02 518.2 311.91 516.15 311.57 515.02 311.96 513.91 314.6 511.48 315.13 510.38 316.26 509.87 317.65 510.09 320.92 508.91 322.45 506.63 322.93 505.33 322.27 504.74 320.55 504.49 318.72 505.09 314.76 503.4 313.19 502.15 314.04 499.22 316.61 497.69 318.53 494.05 319.85 492.33 321.66 491.38 323.29 491.24 324.57 490.74 325.18 490.11 325.8 487.51 326.35 486.62 330.09 488.78 331.37 488.5 335.19 485.51 337.03 485.1 342.17 484.96 343.93 484.35 345.09 483.4 346.86 480.91 349.08 479.38 352.23 481.64 353.36 482.82 354.96 483.93 356.81 482.72 357.99 482.03 359.39 481.59 362.22 478.5 363.42 479.03 365.42 479.48 368.54 479.26 371.14 479.77 372.84 478.86 374.95 477.25 376.6 475.13 379.52 473.74 379.27 470.81 385.22 465.83 390.71 464.64 393.17 463.5 394.18 461.73 394.18 460.38 393.62 459.22 393.79 457.66 393.21 457.33 392.06 458.47 387.75 456.33 386.21 452.46 386.89 449.96 388.6 447.09 388.19 442.69 388.6 438.91 390.3 437.3 390.05 435.02 391.84 434.68 393.88 435.5 398.49 429.81 401.16 431.69 402.13 429.27 401.11 426.09 400.69 423.96 401.48 422.24 408.58 419.28 409.81 417.18 411.83 416.65 414.53 415.4 415.18 413.79 414.07 411.93 416.33 407.8 420.04 404.29 426.84 402.54 428.11 400.4 429.63 398.63 432.18 398.4 434.81 402.75 435.23 404.65 435.83 406.02 434.63 412 434.39 416.87 436.64 415.46 439.98 412.62 442.54 414.03 446.31 412.19 448.74 414.05 449.34 414.86 448.2 415.97 449.76 417.88 452.57 417.08 455.08 418.8 459.79 421.5 463.8 417.11 465.49 418.52 469.89 419.56 472.53 420.45 475.4 422.66 481.69 426.69 487.91 424.92 487.8 427.54 487.23 430.79 490.44 433.78 497.03 438.33 499.88 441.22 507.58 443.1 519.27 447.53 519.08 449.84 518.23 451.75 519.09 452.07 521.26 451.33 525.5 451.72 528.11 450.5 528.93 458.18 528.63 460.08 527.21 461.53 525.72 463.63 525.11 465.56 525.72 467.97 528.77 469.03 526.85 470.41 523.06 472.53 521.17 475.27 520.28 477.71 520.43 478.56 512.45 481.7 499.35 488.46 498.27 497.96 496.75 499.7 Z"/>
<path 
class="district-path"
    data-id="kottayam"
    data-name="Kottayam"
    role="button"
    tabindex="0"
    d="M 619.5 769.92 618.24 770.44 617.12 770.43 615.64 769.39 613.05 766.9 610.14 767.8 609.68 769.29 609.1 770 604.9 770.47 603.38 770.32 601.82 769.27 600.25 769 599.89 770.38 598.66 771.06 597.17 770.93 595.7 770.38 593.21 770.52 592.58 769.76 593.15 768.49 592.9 767.25 594.85 766.73 595.65 766.02 596.81 763.67 596.9 762.7 596.61 762.34 595.37 762.75 593.98 762.69 590.81 761.17 589.14 761 584.52 759.29 582.52 758.89 580.36 758.99 578.42 759.67 578.06 761.03 577.48 761.94 575.21 762.38 572.65 762.43 571.78 762.16 571.2 760.79 567.87 759.72 564.2 755.73 563.26 755.3 563.14 756.63 562.52 757.79 559.11 756.27 558.17 756.81 556.32 757.22 555.1 758.38 554.24 758.2 554.34 756.67 553.76 756.54 552.7 757.13 551.45 756.44 550.41 754.48 547.14 750.48 546.69 748.74 545.02 744.59 543.94 743.69 542.51 741.36 540.39 739.54 538.38 739.16 535.42 739.22 533.97 739.54 532.42 740.68 531.77 740.07 531.54 737.03 530.55 736.53 525.61 735.63 524.65 734.82 522.45 730.85 521.17 729.85 517.89 728.3 516.09 727.9 514.93 727.1 511.05 725.87 509.3 724.2 507.22 724.23 506.21 723.47 504.66 721.15 503.59 720.51 503.76 718.9 501.98 717.46 501.32 716.29 499.16 713.62 498.33 712.87 496.44 712.7 495.43 711.22 492.99 709.31 492.81 707.61 494.72 702.37 493.19 702.24 492.41 701.88 492.37 700.28 491.24 699.54 490.82 697.08 489.71 696.88 489.31 695.53 487.93 695.65 487.19 695.47 485.93 696.63 485.66 694.84 483.77 691.9 483.34 689.89 483.82 688.49 485.49 689.4 487.01 689.49 487.48 688.34 486.91 687.46 487.31 686.83 489.05 686.53 490.13 685.76 491.48 683.27 490.72 681.85 490.57 679.98 488.95 679.89 488.3 679.2 490.12 674.67 490.05 673.28 491.54 672.3 493.78 672.25 493.94 670.89 495.04 669.9 495.57 668.29 498.54 669.5 498.88 666.81 498.49 663.97 496.28 659.06 496.08 657.86 498.01 656.73 499.33 657.17 500.66 657.22 501.83 655.29 503.1 650.62 503.82 649.57 506.4 648.03 507.08 646.63 506.05 645.05 504.32 644.29 504.07 643.66 505.59 641.8 504.23 640.63 501.54 640.58 497.9 641.36 494.74 641.67 491.36 641.5 488.23 641.82 485.25 641.83 483.07 642.52 480.82 641.81 479.84 640.57 478.52 637.77 478.31 636.65 477.66 635.79 476.88 635.3 475.52 635.37 471.17 636.85 469.96 638.5 469.17 642.16 468.46 642.95 466.93 642.76 463.26 641.71 462.01 641.87 458.73 642.81 456.59 642.38 450.04 639.58 447.04 638.9 444.62 639.71 440.79 639.64 438.69 640.86 435.71 642 434.22 641.48 433.63 640.56 433.62 635.48 432.72 634.08 429.72 633.94 428.61 632.74 426.85 631.37 425.96 631.15 424.98 631.78 423.45 632.29 422.2 632.13 419.59 631.03 418.08 630.95 416.95 630.63 416.26 631.42 420.74 635.47 420.43 640.04 418.3 640.49 416.65 641.76 416.2 643.54 415.53 644.79 413.54 646.33 413.21 648.18 410.57 651.05 410.27 652.93 408.83 654.11 407.99 655.32 406.67 654.36 405.86 652.22 405.26 651.99 404.78 653.33 402.28 651.52 400.1 651.58 398.21 650.47 397.01 652.85 396.04 653.69 393.99 652.85 391.14 650.49 389.53 649.73 387.77 649.19 382.01 648.85 378.79 648.2 379.03 647.03 378.18 645.72 378.02 644.37 376.88 642.74 375.49 643.56 373.72 643.16 372.04 643.36 371.47 641.8 371.38 640.05 369.63 640.12 370.07 637.7 369.44 637.41 370.43 627.61 370.74 627.16 372.21 627.38 372.5 626.37 371.61 625.15 372 624.52 367.91 623.36 368.33 621.41 366.72 620.38 365.32 618.73 365.98 617.69 367.34 617.53 368.08 614.96 369.81 611.84 371.09 611.13 373.08 611.51 374.17 612.23 378.2 613.96 386.31 613.34 387.93 612.58 389.06 611.07 389.4 609.27 388.96 607.21 388.88 605.5 389.88 604 391.59 605.04 392.34 604.88 393.08 603.72 393.03 602.32 393.27 600.91 394.11 600.4 396.84 601.16 397.94 600.91 397.89 599.59 397.08 597.89 397.41 595.61 398.41 595.34 399.57 595.84 400.9 596.94 402.72 597.83 403.94 597.49 406.4 594.6 406.69 593.17 406.7 591.26 408.03 589.98 409.47 589.87 410.43 589.87 411.04 591.74 411.68 592.37 414.19 591.05 415.43 591.8 415.28 593.33 416 594.73 419.32 595.19 421.38 594.96 421.97 592.55 423.14 590.67 424.19 590.05 425.48 590.43 425.5 591.93 426 593.3 428.22 595.53 428.54 596.97 429.75 598.66 433.03 598.29 435.7 598.35 439.1 592.56 440.05 589.87 441.63 588.99 442.65 589.44 444.67 589.22 445.78 589.63 447.43 589.83 448.62 588.99 450.33 588.3 452.63 590.29 456.07 590.27 457.29 590.49 457.75 592.03 458.75 592.38 461.1 592.42 461.34 588.45 460.86 586.98 458.96 585.05 458.11 583.34 458.09 577.15 459.26 575.99 459.67 574.46 459.49 572.99 460.17 569.62 461.19 568.86 461.76 568.83 462.81 570.04 465.32 570.01 466.54 570.48 469.19 570.45 470.63 570.72 472.31 567.39 473.08 565 472.9 564.05 464.81 563.4 462.22 563.39 461.49 562.7 459.12 561.2 459.23 559.36 459.95 557.7 460.29 556.03 456.7 555.1 453.81 554.67 449.98 554.93 449.61 555.52 448.99 555.59 447.46 556.42 446.54 555.35 447.05 553.36 446.66 551.33 449.53 549.32 449.88 547.45 453.92 548.17 455.11 546.79 458.37 547.7 460.03 547.01 461.6 545.74 461.34 544.86 462.3 543.62 461.72 542.34 461.74 540.36 465.54 535.33 467.09 533.86 469.29 533.26 470.61 532.45 472.37 532.21 474.95 532.6 476.48 531.67 479.55 530.91 480.82 528.83 481.81 528.18 483.74 527.09 486.13 527.03 485.83 525.52 486.41 521.32 487.59 518.79 485.98 514.88 487.19 509.51 485.96 507.63 484.13 505.56 485.73 501.12 485.58 498.57 488.75 498.62 493.09 499.99 494.92 499.29 496.75 499.7 497.48 500.73 498.5 500.84 501.38 504.18 503.3 502.95 505.72 502.33 505.5 498.37 508.31 497.58 512.33 497.09 516.94 497.06 518.1 497.33 519.44 499.42 522.89 500.99 527.57 501.27 531.31 500.07 540.65 498.89 545.53 498.68 548.28 499.3 554.87 502.36 556.96 500.75 560.72 498.95 564.41 496.51 569.04 494.5 572.17 491.94 572.06 490.7 572.54 489.37 578.07 488.02 582.29 492.08 585.48 494.17 586.13 495.27 587.06 495.02 587.37 495.78 584.68 498.33 584.67 500.18 585.69 502.65 583.37 504.69 581.08 504.19 579.47 505.79 578.05 506.62 577.02 508.24 575.62 508.75 574.67 511.07 576.31 515.19 577.52 516.53 578.04 518.88 579.13 519.27 580.22 519.09 580.83 517.8 579.92 517.02 580.02 516.04 582.17 516.5 583.06 518.82 583.91 520.21 586.07 522.05 588.29 521.15 590.06 521.23 591.26 522.42 591.32 524.43 591.85 525.98 591.47 527.95 590.1 529.37 589.84 531.16 591.24 534.1 592.54 533.46 593.48 534.11 593.65 535.7 594.21 536.87 593.71 538.2 589.97 540.39 589.96 542.13 590.45 543.34 590.8 545.51 591.78 546.1 593.75 545.67 595.2 545.74 596.36 548.1 598.73 549.64 600.26 550.28 602.85 549.62 607.4 544.79 608.49 545.63 608.19 547.08 606.41 550.25 604.86 551.29 597.06 552.67 592.99 552.27 589.33 551.32 582.94 550.24 581.21 550.59 578.8 553.31 576.16 554.93 572.83 560.6 573.17 562.72 572.49 564.78 572.21 566.77 566.79 572.81 566.45 575.93 565.07 578.53 565.81 579.62 565.28 581 562.71 582.67 563.27 584.17 564.41 585.49 571.35 589.71 574.42 590.95 577.06 590.99 579.38 591.45 582.85 593.08 585.06 594.87 586.44 595.55 588.02 595.81 588.94 596.66 589.54 597.63 591.65 596.54 593.07 596.39 594.69 596.43 598.72 597.99 600.21 597.37 602.19 597.39 603.68 598.22 604.8 599.81 606.05 600.57 607.83 600.72 616.2 603.57 617.25 604.47 618.42 607.12 619.38 608.15 621.4 609.54 622.87 611.12 624.12 612.92 624.91 614.6 624.36 615.85 622.38 618.03 623.42 620.5 627.24 620.22 629.58 622.94 636.47 622.53 638.46 622.9 639.47 625.31 641.38 631.99 641.12 633.47 640.24 635.2 640.38 636.83 640.02 638.38 639.15 639.29 638.3 640.69 638.04 642.66 636.04 645.98 635.7 647.83 636.33 650.11 637.1 651.86 636.24 652.27 634.38 652.06 631.26 656.38 630.16 658.48 630.26 660.26 629.6 661.33 628.26 661.92 628.13 662.82 630.7 664.51 632.09 664.73 632.87 665.4 632.94 666.44 632.66 667.83 633.51 668.71 634.29 673.18 633.67 676.25 629.56 677.58 627.34 677.99 624.91 677.26 622.87 677.13 620.7 677.39 619.3 677.01 617.92 676.93 615.48 677.37 612.43 677.27 612.66 678.99 611.9 681.11 612.44 682.65 613.54 683.23 613.9 684.17 613.6 687.24 615.73 689.17 618.59 688.76 619.8 689.16 620.23 690.17 620.11 692.86 619.08 695.66 618.91 697.53 620.05 698.93 620.4 700.21 619.01 703.35 618.64 705.02 620.98 707.66 620.81 709.1 618.89 715.86 617.35 719.72 617.57 722.99 616.49 736.05 613.33 743.44 614.79 744.54 615.76 747.54 617.78 747.03 618.15 748.43 618.16 749.96 615.97 752.32 617.49 753.8 618.79 755.85 620.71 756.82 623.05 759.78 623.43 760.69 622.46 762.81 622.32 764.87 619.75 767.63 619.16 768.69 619.5 769.92 Z"/>
<path 
class="district-path"
    data-id="alappuzha"
    data-name="Alappuzha"
    role="button"
    tabindex="0"
    d="M 758.84 1103.89 758.91 1105.31 758.31 1106.11 758.24 1109.75 757.25 1110.62 757.62 1113.45 756.32 1115.79 756.92 1118.12 758.63 1120.66 755.93 1123.41 754.41 1125.52 753.46 1126.5 752.45 1126.81 750.15 1126.6 750.1 1127.66 749.18 1129.97 751.28 1130.92 752.88 1131.03 754.12 1134.42 753.28 1137.21 753.98 1141.28 752.18 1142.47 751.97 1143.63 749.56 1145.38 747.97 1149.16 747.21 1150.14 745.82 1150.35 743.11 1152.25 741.44 1152.8 740.69 1155.55 739.28 1156.11 738.47 1157.5 736.47 1158.43 734.57 1162.58 734.84 1164.21 735.55 1165.76 735.12 1166.72 734.28 1167.18 733.44 1166.34 730.11 1164.78 728.67 1165.39 727.47 1165.37 725.98 1164.51 724.71 1164.97 722.1 1165.09 718.59 1163.9 719.07 1162.3 718.18 1162.27 717.6 1162.74 715.83 1162.58 713.58 1161.74 712.84 1161.83 712.12 1161.35 708.21 1159.72 704.92 1158.94 703.51 1158.81 699.94 1157.1 698.85 1156.19 697.71 1155.61 695.7 1154.92 695.02 1154.28 692.3 1154 691.33 1153.61 691.14 1152.79 690.59 1152.37 689.17 1152.07 687.93 1151.34 687.4 1150.65 687.32 1149.72 687 1149.19 685.38 1149.45 683.42 1150.5 682.39 1149.95 681.25 1149.84 680.3 1148.87 678.08 1149.11 677.09 1148.42 675.78 1147.93 673.05 1145.33 669.91 1147.45 667.99 1145.83 664.77 1144.52 661.58 1142.94 653.69 1138.33 650.39 1135.76 648.14 1135.11 647.52 1136.93 647.49 1138.27 646.82 1139.94 647.71 1145.32 649.72 1145.78 651.7 1145.75 654.23 1147.38 659.19 1148.95 655.36 1151.6 653.83 1152.35 652.82 1152.42 650.11 1152.05 645.54 1150.41 643.04 1149.98 640.21 1150.26 639.88 1152.57 639.37 1152.37 638.45 1149.25 637.73 1148.04 635.53 1149.95 630.92 1148.04 628.48 1150.34 627.1 1149.8 626.67 1151.77 626.18 1152.26 624.67 1151.73 623.2 1153.65 623.25 1156.53 622.68 1158.04 618.94 1159.5 617.54 1159.28 616.37 1159.62 614.72 1158.98 612.78 1157.32 612.29 1155.95 611.52 1155.24 609.48 1154.53 602.5 1153.33 597.03 1158.31 597.04 1159.3 597.46 1160.88 598.24 1162.18 598.23 1165.43 594.46 1165.96 594.12 1161.53 593.39 1161 592.17 1161.8 591.2 1162.93 589.86 1162.95 588.82 1161.84 588.06 1161.87 587.25 1163.34 585.25 1162.48 583.81 1163.26 581.36 1162.45 579.63 1162.23 575.09 1161.67 567.71 1159.9 563.52 1159.56 562.46 1158.55 562.53 1156.71 562.29 1155.42 561.57 1154.06 560.14 1152.23 560.75 1151.46 562.22 1150.63 562.4 1146.71 562.2 1142.18 565.76 1142.12 567.6 1141.45 567.97 1140.31 567.6 1137.66 567.91 1136.39 568.46 1135.55 569.59 1135.39 571.19 1135.91 571.67 1134.75 571.02 1133.46 568.95 1131.27 566.04 1126.88 561.63 1126.3 560.33 1123.97 559.35 1124.09 559.48 1125.87 558.67 1125.66 557.95 1123.55 558.57 1122.7 558.41 1121.72 557.58 1121.72 558.46 1120.7 557.46 1116.84 559.69 1116.04 560.85 1115.92 561.69 1115.46 563.13 1113.89 561.64 1110.17 562.44 1108.17 564.78 1105.27 569.08 1104.73 570.55 1101.4 573.75 1100.53 574.08 1099.24 574.02 1096.72 572.06 1096.88 571.83 1098.16 571.36 1098.28 569.99 1096.9 568.48 1098.58 567.17 1098.91 566.06 1099.69 564.74 1099.25 563.29 1099.42 562.09 1098.6 561.82 1096.56 561.84 1093.58 561.13 1092.56 559.53 1091.06 556.83 1086.9 558.72 1085.34 558.73 1085.33 557.87 1083.87 558.21 1082.49 557.78 1081.75 554.72 1081.76 553.65 1082.47 552.33 1082.46 546.27 1080.92 545.07 1080.04 543.64 1079.55 540.51 1079.68 538.68 1080.1 537.82 1079.21 536.18 1078.23 533.36 1079.43 531.9 1080.46 530.91 1079.59 529.43 1080.29 530.21 1081.38 532.11 1081.79 531.7 1083.35 530.51 1084.15 530.47 1087.55 529 1088.2 524.92 1089.07 524.15 1088.11 523.01 1087.63 518.39 1087.47 515.54 1088.49 513.81 1088.44 512.17 1087.82 509.86 1086.83 507.16 1086.9 505.97 1086.02 506.47 1084.41 510.14 1080.36 511.99 1080.3 517.26 1078.43 517.82 1075.44 520.67 1075.35 520.76 1074.54 518.85 1074.08 516.92 1072.8 516.3 1071.2 517.21 1071.04 517.22 1069.5 517.98 1067.8 517.41 1066.93 517.22 1065.69 517.59 1064.47 518.25 1063.57 518.29 1061.25 520.89 1061.35 521.33 1061.08 521.97 1059.9 522.88 1060.01 523.06 1059.24 524.07 1058.58 524.77 1059.31 526.04 1059.01 527.32 1057.12 528.62 1056.89 530.12 1057.39 530.89 1058.62 531.24 1060.17 532.38 1060.36 533.87 1060.03 536.14 1058.65 537.78 1057.26 539.02 1057 541.92 1058.19 542.75 1058.95 543.64 1058.24 543.43 1057.3 542.07 1055.26 542.54 1053.57 542.61 1052.22 541.91 1050.94 542.05 1049.92 544.67 1048.47 545.65 1048.44 545.58 1045.88 546.27 1045.67 547.52 1047.11 547.83 1046.95 547.92 1045.38 549.37 1044.89 553.21 1045.01 552.82 1044.13 553.21 1042.66 553.85 1041.8 554.65 1041.9 556.02 1043.88 556.72 1043.21 557.38 1041.85 557.61 1039.94 561.56 1038.52 564.33 1038.34 567.46 1038.73 569.55 1038.12 571.73 1039.45 573.96 1039.52 575.96 1039.95 576.35 1040.77 576.25 1042.1 576.47 1043.73 577.43 1044.46 578.21 1046.14 578.82 1046.67 580.58 1046.56 581.95 1045.15 585.04 1043.95 586.06 1043.31 585.82 1041.89 586.78 1040.89 589.79 1040.97 590.86 1040.66 591.74 1042.14 592.1 1043.45 592.78 1044.41 591.89 1046.9 592.39 1047.43 593.93 1047.23 594.6 1047.85 595.3 1050.4 596.05 1051.4 598.06 1051.18 599.07 1050.47 601.98 1049.26 602.92 1049.09 605.22 1049.68 605.23 1049.68 605.64 1048.63 605.49 1047.52 606.52 1047.24 607.44 1047.81 607.96 1046.79 611.47 1046.89 612.42 1046.57 613.91 1047.43 615.15 1049.34 616.17 1049 616.82 1048.02 618.25 1048 619.55 1048.22 621.55 1048.95 623.09 1049 623.83 1047.86 624.54 1045.79 627.68 1047.89 630.33 1049.22 632.04 1049.29 634.02 1049.7 635.83 1050.71 637.93 1052.47 642.01 1055.02 645.67 1055.47 646.11 1056.18 646.04 1057.02 646.32 1058.01 647.14 1058.09 648.83 1057.55 650.03 1056.68 650.92 1056.82 651.22 1054.32 658.47 1054.43 663.06 1055.87 667.63 1056.63 669.86 1056.42 671.63 1057.77 674.44 1057.44 674.31 1060.87 676.77 1061.54 678.05 1061.17 679.25 1061.32 680 1060.49 680.93 1060.41 681.54 1059.75 683.54 1059.48 686.9 1058.24 690.08 1058.68 691.12 1058.47 689.79 1055.83 687.82 1053.21 685.09 1047.65 685.76 1045.98 687 1044.88 688.38 1044.96 689.69 1045.16 691.82 1046.54 692.92 1046.42 694.96 1045.33 696 1045.11 697.42 1044.48 698.96 1043.18 702.59 1039.11 704.89 1039.01 707.55 1039.23 708.65 1038.34 711.06 1034.92 714.27 1035.66 714.95 1036.78 715.01 1038.34 714.37 1039.82 714.19 1041.69 714.78 1044.67 718.59 1041.98 720.33 1042.08 722.16 1041.82 722.49 1043.5 722.95 1043.22 722.89 1044.61 724.48 1042.98 726.66 1041.56 727.23 1043.54 727.85 1043.85 727.74 1044.55 727.05 1045.71 727.85 1046.73 728.75 1046.42 729.28 1047.94 730.15 1048.22 731.77 1047.78 733.1 1048.22 734.1 1047.69 735.65 1049.25 734.85 1050.66 735.39 1050.75 736.18 1050.25 737.02 1051.58 740.14 1053.39 739.69 1055.95 740.52 1056.74 740.73 1057.87 742.11 1057.5 742.65 1058.6 741.89 1060.29 747.59 1068.26 747.98 1069.51 747.42 1071.17 746.23 1073.21 745.93 1076.64 744.66 1077.98 743.97 1079.57 744.77 1081.06 745.01 1082.58 744.24 1083.82 742.93 1085.1 743.84 1085.99 744.08 1086.92 740.85 1090.66 741.04 1096.18 741.97 1095.85 744.21 1097.3 744.89 1100.4 745.59 1099.63 746.92 1100.57 747.3 1098.45 750.58 1099.45 751.85 1101.16 753.87 1101.4 755.29 1102.05 755.98 1102.7 758.84 1103.89 Z"/>
<path 
class="district-path"
    data-id="pathanamthitta"
    data-name="Pathanamthitta"
    role="button"
    tabindex="0"
    d="M 732.75 1260.96 732.05 1262.07 732.89 1263.38 732.98 1265.02 732.17 1267.32 730.74 1269.13 728.99 1269.66 726.41 1269.1 724.68 1267.35 724.09 1268.36 724.73 1270.36 726.5 1273.57 726.11 1275.37 727.79 1277.72 729.46 1279.09 731.64 1280.22 732.81 1283.22 734.3 1285.18 734.95 1287.18 735.18 1289.12 734.13 1291.9 735.15 1294.22 736.7 1296.16 737.73 1298.54 739.85 1300.35 740.8 1301.65 742.1 1302.38 744.09 1305.64 747.1 1307.34 746.99 1310.42 747.17 1312.07 748.34 1313.85 750.06 1315 751.72 1317.46 754.45 1320.45 757.04 1327.31 758.73 1329.34 758.76 1330.94 756.57 1333.87 754.8 1337.34 753.26 1342.26 751.3 1343.29 748.52 1343.99 747 1345.66 745.44 1346.38 743.76 1343.93 740.35 1341.34 737.89 1341.5 735.84 1342.94 734.11 1344.83 735.51 1346.44 736.69 1352.34 738 1355.2 740 1356.67 741.24 1358.18 741.61 1360.57 741.39 1362.24 738.03 1362.55 734.85 1363.19 732.98 1365.47 732.27 1368.26 732.09 1371.24 729.72 1373.56 728.12 1375.52 727.3 1377.91 723.93 1381.18 722.58 1381.81 721.45 1379.85 719.86 1379.5 718.01 1380.85 718.33 1382.74 720.02 1383.84 720.66 1385.94 718.21 1389.24 718.34 1391.15 720.14 1390.05 722.01 1388.35 723.44 1388.29 724.25 1389.33 724.94 1391.28 723.11 1394.33 723.15 1395.75 723.82 1397.4 725.87 1399.99 725.87 1401.52 724.35 1401.18 723.49 1399.34 722.76 1398.57 721.17 1399.11 718.76 1399.16 716.74 1397.87 714.02 1398.28 710.76 1400.31 709.91 1401.44 707.41 1401.84 708.61 1404.98 706.6 1405.02 706.05 1406.1 703.82 1406.33 702.32 1407.99 701.15 1410.59 699.22 1409.74 697.67 1408.59 696.58 1407.55 696.08 1407.1 695.92 1406.96 695.78 1406.81 695.57 1406.73 695.58 1406.59 694.61 1405.76 694.24 1405.49 693.31 1404.79 691.83 1403.69 691.76 1403.49 687.46 1400.24 686.16 1398.91 685.9 1398.53 685.19 1397.89 684.96 1397.68 683.66 1396.69 683.6 1396.5 682.48 1395.48 677.97 1391.66 677.98 1391.52 677.08 1390.64 676.1 1390.04 675.81 1390.11 675.25 1390.21 674.9 1390.06 674.75 1390.12 673.75 1389.97 673.47 1389.89 672.91 1389.67 671.86 1388.99 670.71 1386.01 670.56 1385.89 670.42 1385.72 670.31 1385.17 669.68 1383.61 669.33 1383.32 668.26 1383.43 666.82 1384.31 666.02 1383.93 665.96 1383.75 664.44 1382.74 664.12 1382.09 663.66 1381.44 662.03 1379.84 661.89 1379.7 661.69 1379.55 661.62 1379.2 661.47 1379.08 661.33 1378.33 661.24 1375.81 661.21 1375.56 660.99 1373.15 660.76 1372.57 658 1369.65 658.01 1369.36 657.73 1369.22 657.74 1369.07 655.45 1366.82 655.45 1366.67 655.33 1366.55 652.07 1363.45 651.93 1363.31 651.45 1362.87 651.09 1362.78 650.92 1362.48 650.93 1362.34 650.49 1361.93 650.17 1361.64 650.06 1361.41 649.24 1360.32 649.25 1360.17 648.27 1359.22 648.21 1359.01 648.22 1358.87 646.49 1357.16 646.43 1356.95 646.29 1356.81 645.51 1356.14 645.44 1355.94 645.31 1355.81 644.9 1355.44 644.91 1355.16 642.52 1352.63 642.46 1352.41 641.88 1351.88 641.89 1351.73 641.89 1351.59 639.34 1349.02 639.34 1348.87 638.37 1347.94 638.09 1347.58 637.82 1347.08 636.02 1345.18 635.7 1344.18 634.31 1342.82 634.09 1342.74 634.1 1342.6 633.98 1342.5 633.69 1342.28 633.37 1341.41 632.08 1340.14 631.65 1339.31 631.66 1339.09 630.26 1337.83 630.2 1337.61 629.72 1337.19 629.52 1336.9 629.45 1336.62 629.25 1336.34 628.97 1336.11 628.98 1335.97 628.3 1334.88 628.3 1334.74 626.88 1333.32 626.71 1332.92 626.18 1332.06 626.03 1331.98 625.97 1331.46 625.55 1331.02 625.01 1330.1 624.81 1329.67 624.75 1329.39 622.48 1326.92 622.2 1326.55 622.15 1326.12 621.8 1325.83 621.67 1325.7 619.73 1323.64 619.34 1322.78 618.57 1321.98 617.05 1320.23 616.51 1319.51 616.17 1318.72 614.65 1317.26 614.52 1316.89 614.32 1316.46 614.06 1316.27 613.55 1315.8 613.56 1315.66 612.8 1314.72 611.99 1313.55 611.92 1313.27 611.02 1312.4 610.82 1311.76 609.92 1310.94 609.86 1310.66 609.67 1310.23 609.1 1309.79 608.92 1309.08 608.43 1308.64 608.16 1308.13 607.87 1307.83 606.64 1306.53 606.65 1306.38 606.31 1306.02 606.12 1305.56 605.77 1304.87 605.63 1304.75 604.37 1303.76 604.1 1303.35 602.51 1301.66 602.52 1301.51 600.61 1299.66 599.75 1298.88 599.75 1298.74 599.76 1298.59 598.99 1298.07 598.99 1297.93 598.78 1297.86 598.51 1297.28 598.3 1297.2 598.17 1297.06 597.89 1296.84 597.56 1296.2 596.66 1295.03 596.67 1294.89 595.8 1293.91 595.8 1293.77 594.96 1292.84 594.84 1292.48 593.64 1291.18 593.31 1290.4 592.33 1289.44 592.33 1289.3 591.92 1288.94 591.39 1287.79 589.81 1285.93 589.33 1285.18 589.33 1285.03 589.19 1285.03 589.05 1284.88 589.05 1284.74 587.74 1283.54 587.67 1283.33 587.06 1282.77 587.06 1282.63 586.57 1281.98 586.3 1281.61 586.31 1281.47 585.27 1280.45 585.28 1280.31 585.28 1280.16 583.96 1278.92 583.42 1277.92 582.04 1276.45 581.98 1276.1 581.65 1275.38 580.48 1274.01 580.21 1273.42 580.15 1273.07 578.75 1271.82 578.76 1271.67 578.55 1271.53 578.36 1270.96 578.37 1270.75 577.04 1269.5 576.91 1269.14 576.91 1269 576.06 1268.12 575.85 1268.05 575.68 1267.72 574.57 1266.59 573.97 1265.3 572.78 1264.2 572.31 1263.2 571.76 1262.72 570.52 1261.37 570.35 1261.01 570.41 1260.37 569.92 1260.08 569.64 1259.79 569.55 1259.29 567.26 1257.44 568.56 1257.28 569 1255.2 569.54 1255.2 569.62 1256.38 570.08 1257.77 570.32 1258.47 570.75 1259.14 571.7 1258.6 572.91 1258.53 572.94 1258.47 573.67 1256.98 573.99 1256.31 574.1 1254.42 575.67 1254.66 576.81 1254.48 577.23 1253.89 577.69 1254.14 578.23 1254.9 578.99 1254.43 579.34 1253.54 580.31 1253.22 582.97 1251.14 583.91 1251.11 584.87 1251.67 589.53 1253.01 591.06 1253.21 594.82 1253.21 595.15 1252.04 597.4 1252.35 598.79 1251.26 598.07 1250.47 598.58 1250.29 598.64 1249.41 599.05 1248.98 604.92 1248.9 605.21 1247.65 604.22 1246.28 602.73 1246.06 602.73 1245.48 603.78 1244.89 604.86 1245.02 605.54 1243.14 601.39 1238.5 600.47 1238.02 600.6 1236.81 601.44 1235.11 600.96 1232.97 602.53 1232.76 603.21 1233.84 606.69 1234.47 607.7 1235.57 608.98 1235.79 609.71 1234.39 611.2 1234.57 612.59 1233.5 614.47 1234.61 615.89 1238.07 617.23 1237.82 618.08 1238.02 620.81 1239.37 622.3 1240.59 622.42 1243 623.39 1243.68 623.6 1244.66 624.45 1246.04 625.67 1246.53 626.32 1246.22 629.2 1247.94 632.24 1248.7 633.3 1249.55 634.44 1249.89 635.11 1248.87 636.05 1248.17 639.24 1248.2 642.64 1251.67 643.53 1253.18 644.79 1254.11 645.63 1256.38 643.47 1258.21 648.52 1262.35 649.49 1263.76 651.87 1262.54 653.79 1261.08 654.93 1260.6 657.29 1260.89 660.45 1260.45 661.72 1260.02 662.12 1258.26 662.87 1256.74 663.94 1256.04 666.01 1256.22 668.63 1257.25 669.82 1258.45 671.85 1260.73 676.54 1260.3 679.1 1259.61 675.95 1254.99 674.84 1252.12 674.04 1248.81 675.18 1247.32 677.47 1246.66 678.29 1242.27 679.37 1240.99 680.64 1238.53 683.85 1237.51 686.34 1237.52 695.58 1239.8 700.75 1242 703.6 1242.37 704.57 1243.83 708.45 1245.82 709.99 1247.58 712.19 1249.27 714.82 1250.06 716.7 1251.04 718.23 1252.78 719.72 1253.25 721.13 1254.47 724.55 1256.19 726.5 1257.85 728.82 1259.25 732.75 1260.96 Z"/>
<path 
class="district-path"
    data-id="kollam"
    data-name="Kollam"
    role="button"
    tabindex="0"
    d="M 619.5 769.92 619.23 773.12 618.71 775.54 617.28 778.57 617.31 780.89 618.96 781.32 620.55 782.17 621.17 784.47 622.21 785.12 623.25 786.4 623.67 786.41 623.65 785.19 623.88 784.51 627.07 784.75 629.31 782.73 630.15 782.27 631.31 782.48 630.63 784.83 630.48 788.87 630.71 789.68 633.39 790.61 635.36 793.03 637.74 793.41 640 797.16 638.3 796.47 637.25 794.84 635.27 795.27 634.45 794.2 633.2 793.52 632.47 793.41 632.48 792.29 632.1 791.64 629.71 790.59 629.07 791.36 628.38 791.29 628.04 790.45 622.19 787.85 621.57 788.13 620.16 786.84 619.64 786.89 618.72 788.81 617.83 789.29 616.94 789.25 616.34 788.23 613.59 787.11 611.33 786.58 609.31 786.43 607.32 788.97 606.49 788.99 605.86 788.11 604.37 788.84 601.86 789.1 600.05 789.04 599.89 790.71 598.22 791.19 596.7 791.11 595.19 791.41 592.82 789.84 591.7 788.81 590.06 789.72 587.76 789.93 585.43 790.69 578.75 791.35 577.8 792 575.76 792.71 572.57 792.18 570.44 791.39 566.57 790.74 564.62 788.58 563.01 788 559.24 787.84 558.36 789.31 556.96 789.87 555.03 790.13 552.75 790.12 551.79 789.83 550.5 788.26 545.99 787.58 543.42 785.85 542.5 784.98 542.03 784.32 541.73 782.43 540.22 782.35 538.14 781.36 535.44 783 534.46 784.06 536.3 787.19 533.23 786.84 531.2 787.42 530.06 787.31 527.9 786.05 526.36 785.61 521.66 786.49 519.04 786.18 514.67 786.08 513.47 785.79 512.5 785.26 511.72 784.51 505.26 784.52 501.38 783.11 497.87 783.17 494.95 784.1 493.42 784.34 492.11 785 487.57 783.28 487.04 783.59 487.34 784.59 487.32 785.65 486.25 785.9 486.37 787.41 486.11 788.61 483.73 788.97 482.94 789.34 482.08 790.45 481.13 792.35 479.4 793.5 479.02 794.36 479.19 795.78 477.87 796.44 476.1 796.36 475.56 797.13 475.46 799.07 474.39 800.2 473.48 800.75 464.52 803.05 463.58 803.73 463.1 804.91 462.53 808.57 461.8 809.61 460.29 810.59 454.92 811.55 454.44 812.66 454.94 815 454.95 817.31 455.34 819.33 452.84 818.03 451.75 818.4 450.08 820.23 448.19 820.35 443.38 821.36 443.04 819.76 441.13 817.21 439.26 816.88 438.74 814.83 439.58 814.47 439.74 813.72 438.65 813.25 436.19 812.94 435.08 813.32 432.22 812.01 430.93 812.5 428.35 812.13 426.2 811.14 425.49 812.16 424.72 812.79 423.96 812.89 423.41 814.26 423.48 814.46 423.66 815.01 417.13 815.79 416.84 815.82 413.53 816.48 412.79 816.83 409.72 818.27 409.08 816.57 407.61 815.99 407.45 815.67 407.1 815.37 406.05 814.5 405.66 813.56 405.37 813.41 402.97 807.32 402.83 807.25 402.69 807.17 401.41 804.1 401.22 803.91 401.14 803.72 400.84 803.08 400.63 802.94 400.35 801.16 400.37 800.59 400.68 799.96 400.96 797.56 400.66 795.73 400.53 795.13 398.89 793.49 398.79 793.25 398.69 793.14 398.34 791.71 398.07 791.08 398 790.81 397.37 786.89 397.2 786.56 396.95 786.24 396.6 784.53 394.67 777.18 391.34 768.44 391.31 768.32 390.29 764.94 389.66 761.8 389.54 761.41 388.95 759.65 387.77 756.12 387.59 755.62 386.55 753.06 386.41 752.99 386.2 752.56 386.06 752.48 385.53 751.19 385.38 751.12 385.24 751.04 385.13 750.55 385 750.48 383.97 747.95 383.83 747.87 382.9 745.52 382.75 745.44 382.49 744.65 382.36 744.59 382.22 744.15 382.08 744.08 381.93 744 380.47 740.2 380.17 739.87 379.89 739.58 379.68 738.98 379.25 737.74 377.73 733.3 377.54 733.11 376.82 731.09 376.64 730.91 376.58 730.74 376.38 730.24 375.75 729.72 374.89 728.14 373.9 727.23 373.04 726.33 372.35 725.42 371.89 724.71 371.53 724.09 371.32 723.83 371.1 723.36 370.67 722.07 370.32 721.07 370.4 720.55 370.96 720.76 371.44 721.36 372.21 722.45 372.82 723.66 373.59 724.84 374.14 725.37 375.15 725.72 375.34 725.24 375.13 724.62 374.83 723.62 374.38 722.68 374.22 722.28 373.62 721.59 373.54 721.44 373.22 720.95 373.17 720.66 372.45 719.64 372.25 719.49 371.91 718.63 371.77 718.56 371.71 718.27 371.43 718.05 371.35 717.85 370.81 717.14 370.7 716.38 370.58 716.04 370.3 715.75 369.46 713.43 369.44 712.47 369.88 711.55 373.85 710.88 374.06 710.96 374.86 712.06 375.2 712.43 376.97 714.68 378.35 716.36 378.11 715.31 377.16 713.15 376.49 711.39 376.14 710.81 376.3 710.31 377.16 710.26 377.34 710.23 377.59 710.2 377.82 709.99 377.77 709.21 377.62 709.14 377.42 708.57 377.43 708.29 376.31 707.4 374.83 706.94 374.25 707.07 373.76 706.7 373.48 706.48 373.38 706.23 372.94 704.97 372.11 703.96 371.95 703.39 371.61 701.61 371.62 701.18 372.02 700.9 372.42 700.56 372.47 700.35 372.44 700.07 371.94 698.7 371.77 698.28 371.42 698.19 370.55 698.39 370.37 698.45 369.82 698.79 369.22 699.76 368.71 700.11 368.61 701.24 368.71 701.53 368.86 701.64 369.26 702.85 369.54 703.06 369.93 704.18 370.13 704.38 370.33 704.94 370.88 706.07 371.02 706.14 371.23 706.62 371.92 708 371.97 708.98 371.75 709.2 368.86 709.89 368.1 710.23 367.95 710.41 367.83 710.93 367.86 711.91 367.83 712.29 367.8 712.64 367.76 713.34 368.98 717.2 368.93 717.63 368.49 717.97 367.5 717.44 367.15 717.22 366.72 716.01 365.63 712.16 364.87 709.43 363.85 706.83 363.6 706.46 362.39 703.23 360.18 696.78 359.8 696.12 359.52 695.89 358.58 693.45 358.44 693.38 358.3 693.31 357.83 691.95 357.07 691.22 355.77 688.3 355.58 688.13 355.52 687.84 355.15 687.4 354.83 687.11 354.62 686.61 354.08 685.68 353.94 685.6 351.2 678.82 351.01 678.63 350.55 677.28 350.41 677.2 350.05 676.23 349.47 674.69 349.33 674.62 347.08 669.26 346.82 668.39 346.68 668.32 346.01 666.6 345.87 666.52 345.72 666.45 344.59 663.73 344.24 663.43 344.18 663.15 343.35 662.2 343.06 661.99 342.75 661.08 342.69 661.05 344.67 660.96 345.23 660.11 346.59 659.63 347.36 658.89 348.26 658.67 348.68 659.31 350.7 659.32 350.82 660.96 351.65 661.16 351.87 658.95 354.81 658.6 355.31 658.04 355.52 658.84 356.86 658.87 358.01 659.5 358.32 660.3 360.1 660.85 362.56 658.96 364.59 658.09 367.7 657.29 369.25 655.29 369.94 655.82 371.5 655.96 372.36 655.34 372.79 655.93 373.54 655.59 374.25 652.72 375.84 651.61 376.66 650.44 378.35 649.89 378.24 648.85 378.79 648.2 382.01 648.85 387.77 649.19 389.53 649.73 391.14 650.49 393.99 652.85 396.04 653.69 397.01 652.85 398.21 650.47 400.1 651.58 402.28 651.52 404.78 653.33 405.26 651.99 405.86 652.22 406.67 654.36 407.99 655.32 408.83 654.11 410.27 652.93 410.57 651.05 413.21 648.18 413.54 646.33 415.53 644.79 416.2 643.54 416.65 641.76 418.3 640.49 420.43 640.04 420.74 635.47 416.26 631.42 416.95 630.63 418.08 630.95 419.59 631.03 422.2 632.13 423.45 632.29 424.98 631.78 425.96 631.15 426.85 631.37 428.61 632.74 429.72 633.94 432.72 634.08 433.62 635.48 433.63 640.56 434.22 641.48 435.71 642 438.69 640.86 440.79 639.64 444.62 639.71 447.04 638.9 450.04 639.58 456.59 642.38 458.73 642.81 462.01 641.87 463.26 641.71 466.93 642.76 468.46 642.95 469.17 642.16 469.96 638.5 471.17 636.85 475.52 635.37 476.88 635.3 477.66 635.79 478.31 636.65 478.52 637.77 479.84 640.57 480.82 641.81 483.07 642.52 485.25 641.83 488.23 641.82 491.36 641.5 494.74 641.67 497.9 641.36 501.54 640.58 504.23 640.63 505.59 641.8 504.07 643.66 504.32 644.29 506.05 645.05 507.08 646.63 506.4 648.03 503.82 649.57 503.1 650.62 501.83 655.29 500.66 657.22 499.33 657.17 498.01 656.73 496.08 657.86 496.28 659.06 498.49 663.97 498.88 666.81 498.54 669.5 495.57 668.29 495.04 669.9 493.94 670.89 493.78 672.25 491.54 672.3 490.05 673.28 490.12 674.67 488.3 679.2 488.95 679.89 490.57 679.98 490.72 681.85 491.48 683.27 490.13 685.76 489.05 686.53 487.31 686.83 486.91 687.46 487.48 688.34 487.01 689.49 485.49 689.4 483.82 688.49 483.34 689.89 483.77 691.9 485.66 694.84 485.93 696.63 487.19 695.47 487.93 695.65 489.31 695.53 489.71 696.88 490.82 697.08 491.24 699.54 492.37 700.28 492.41 701.88 493.19 702.24 494.72 702.37 492.81 707.61 492.99 709.31 495.43 711.22 496.44 712.7 498.33 712.87 499.16 713.62 501.32 716.29 501.98 717.46 503.76 718.9 503.59 720.51 504.66 721.15 506.21 723.47 507.22 724.23 509.3 724.2 511.05 725.87 514.93 727.1 516.09 727.9 517.89 728.3 521.17 729.85 522.45 730.85 524.65 734.82 525.61 735.63 530.55 736.53 531.54 737.03 531.77 740.07 532.42 740.68 533.97 739.54 535.42 739.22 538.38 739.16 540.39 739.54 542.51 741.36 543.94 743.69 545.02 744.59 546.69 748.74 547.14 750.48 550.41 754.48 551.45 756.44 552.7 757.13 553.76 756.54 554.34 756.67 554.24 758.2 555.1 758.38 556.32 757.22 558.17 756.81 559.11 756.27 562.52 757.79 563.14 756.63 563.26 755.3 564.2 755.73 567.87 759.72 571.2 760.79 571.78 762.16 572.65 762.43 575.21 762.38 577.48 761.94 578.06 761.03 578.42 759.67 580.36 758.99 582.52 758.89 584.52 759.29 589.14 761 590.81 761.17 593.98 762.69 595.37 762.75 596.61 762.34 596.9 762.7 596.81 763.67 595.65 766.02 594.85 766.73 592.9 767.25 593.15 768.49 592.58 769.76 593.21 770.52 595.7 770.38 597.17 770.93 598.66 771.06 599.89 770.38 600.25 769 601.82 769.27 603.38 770.32 604.9 770.47 609.1 770 609.68 769.29 610.14 767.8 613.05 766.9 615.64 769.39 617.12 770.43 618.24 770.44 619.5 769.92 Z"/>
<path 
class="district-path"
    data-id="thiruvananthapuram"
    data-name="Thiruvananthapuram"
    role="button"
    tabindex="0"
    d="M 432.18 398.4 429.63 398.63 428.11 400.4 426.84 402.54 420.04 404.29 416.33 407.8 414.07 411.93 415.18 413.79 414.53 415.4 411.83 416.65 409.81 417.18 408.58 419.28 401.48 422.24 399.05 420.25 397.24 417.68 394.82 415.23 392.13 414.28 389.67 412.59 386.7 412.07 385.16 409.96 386.64 408.55 385.44 407.03 385.14 404.66 381.11 400.05 380.29 400.08 376.72 403.97 375.14 403.62 373.55 405.52 372 404.78 370.91 405.01 369.98 405.98 367.39 403.76 364.28 402.37 362.28 401.79 359.42 399.55 356.81 398.09 353.9 396.05 352.82 394.85 350.61 393.61 348.94 391.84 347.67 391.19 346.93 390.53 343.91 387.21 344.06 385.58 343.61 383.9 343.48 381.5 341.74 380.85 340.05 380.62 338.27 379.63 337.46 378.84 333.93 378.09 331.1 376.3 328.1 374.24 327.42 373.42 327.07 370.66 324.87 369 325.03 366.94 325.58 365.79 325.61 361.68 326.25 360.26 326.77 356.46 326.82 354.36 326.22 350.99 327.53 350.15 328.4 349.18 330.15 348.23 330.62 347.54 327.66 345.93 326.82 344.98 324.44 344.19 321.18 344.57 318.99 344.28 318.27 343.53 316.12 343.9 312.64 343.46 310.17 343.93 309.85 342.93 308.53 342.13 308.55 341.09 308.2 339.92 305.52 338.36 303.72 336.57 302.03 336.18 300.84 333.67 299.94 332.84 296.83 331.05 295.12 330.46 292.87 330.54 293.86 328.79 290.72 326.39 289.7 325.31 289.78 324.5 290.88 323.42 291.19 320.59 292.37 318.68 291.95 315.87 290.66 314.7 287.13 313.17 287.99 311.08 288.88 309.98 290.43 309.04 291.89 308.77 293.24 307.98 293.7 306.6 293.68 305.08 293.25 303.52 291.95 302.55 291.11 301.37 291.39 299.7 291.83 298.2 294.39 298.11 295.29 297.53 295.73 296.53 296.64 295.38 299.58 295.22 301.95 296.65 303.54 296.96 304.91 296.91 307.28 295.47 308.3 295.52 309.17 296.53 310.03 297.13 311.87 297.75 313.04 297.72 314.25 297.24 315.41 298.17 317.95 297.85 319.51 298.81 320.51 298.97 321.68 298.65 323.06 299.37 324.29 299.21 325.94 299.67 329.92 298.75 331.09 298.89 332.17 298.35 332.91 298.99 333.24 300.1 333.96 299.98 334.52 298.97 334.32 296.28 335.13 293.47 331.46 291.23 329.76 289.66 334.71 287.58 336.74 284.98 337.17 283.12 336.99 280.69 336.36 278.14 333.34 274.67 333.52 272.83 335.13 268.99 336.99 269.53 338.9 268.99 342.42 268.65 344.47 269.4 345.72 270.3 348.56 270.81 350.04 270.62 351.18 271.43 352.32 271.52 353.42 271.28 356.9 271.94 358.07 271.84 359.89 269.24 363.01 268.81 364.43 268.26 365.87 268.37 367.93 268.96 370.73 267 371.81 265.66 373.64 265.29 379.6 260.96 381.5 260.01 384.07 260.2 387.3 259.91 392.52 257.06 392.78 270.38 392.44 286.57 392.85 288.37 393.04 292.12 392.65 294.44 395.31 296.98 396.54 296.59 398.18 296.44 402.37 292.57 405.64 291.34 409.78 291.64 413.26 290.88 416.51 290.46 420.3 293.03 421.81 293.46 422.61 295.05 423.14 298.3 423.81 300.46 423.29 304.27 425.32 305.93 426.06 309.08 427.39 310.38 431.65 311.49 435.52 311.84 438.26 310.43 442.13 310.23 444.19 309.25 445.16 310.12 447.85 315.09 451.33 317.2 452.99 317.8 453.98 319.86 456.32 327.9 458.54 328.99 460.67 329.5 464.02 332.03 465.88 331.87 467.56 332.06 469.09 330.82 470.63 329.11 475.75 330.26 479.34 327.49 481.53 328.16 485.82 325.97 486.85 324.88 487.84 327.02 486.52 328.85 486.2 331.13 488.21 330.83 489.87 333.44 490.42 334.83 490.39 336.21 490.09 337.31 487.94 338.45 487.18 340.26 486.43 340.44 485.44 339.44 483.33 341.23 485.39 341.73 485.17 346.85 486.81 351.1 487.7 352.65 490.01 353 491.86 354.28 493.2 357.97 493.87 358.73 495.38 359.81 495.68 361.04 495.26 362.35 494.16 363.56 492.65 363.76 492.31 365.55 491.2 364.99 483.32 364.94 478.25 365.85 477.22 368.26 477.25 371.42 475.44 372.65 475.34 374.92 473.66 375.47 468.87 378.29 465.8 378.98 464.31 379.67 463.66 378.95 463.62 377.55 462.1 376.48 456.62 379.95 456.02 382.43 454.77 382.17 452.48 384.08 451.19 383.86 450.99 381.76 450.19 379.01 448.69 378.26 446.2 378.09 445.58 376.08 444 375.16 442.67 376.28 440.46 377.03 429.81 384.09 430.18 385.58 432.56 389.71 433.78 393.81 435.09 395.24 435.24 396.67 434.21 397.69 432.18 398.4 Z"/>
</g>
</svg>